<svg width="107" height="107" viewBox="0 0 107 107" fill="none" xmlns="http://www.w3.org/2000/svg">
<mask id="path-1-outside-1_300_41" maskUnits="userSpaceOnUse" x="2" y="20" width="103" height="70" fill="black">
<rect fill="white" x="2" y="20" width="103" height="70"/>
<path d="M14.08 87.2C11.04 87.2 8.84 86.72 7.48 85.76C6.12 84.8 5.32 83.76 5.08 82.64C4.76 81.52 4.6 80.68 4.6 80.12C4.68 79.08 5.16 78.24 6.04 77.6C6.84 76.96 7.76 76.64 8.8 76.64C9.44 76.64 10 76.8 10.48 77.12C10.96 77.36 11.2 77.92 11.2 78.8C11.2 79.6 10.92 80.16 10.36 80.48C9.8 80.8 9.2 80.96 8.56 80.96C8 80.96 7.52 80.88 7.12 80.72C6.64 80.56 6.4 80.48 6.4 80.48C6.4 82.64 7.2 84.08 8.8 84.8C10.4 85.52 12.2 85.88 14.2 85.88C17.32 85.88 20.52 85 23.8 83.24C27.16 81.48 30.6 79.16 34.12 76.28C37.64 73.32 41.24 70.04 44.92 66.44C48.68 62.76 52.52 59.08 56.44 55.4C60.68 51.4 64.88 47.44 69.04 43.52C73.28 39.52 77.36 35.92 81.28 32.72C85.2 29.52 88.84 26.96 92.2 25.04C95.56 23.12 98.56 22.16 101.2 22.16C102.08 22.16 102.44 22.32 102.28 22.64C102.2 22.96 101.56 23.2 100.36 23.36C97.56 23.84 94.48 25.12 91.12 27.2C87.84 29.2 84.36 31.8 80.68 35C77 38.12 73.2 41.56 69.28 45.32C65.44 49 61.52 52.72 57.52 56.48C53.84 60 50.12 63.56 46.36 67.16C42.68 70.76 39 74.08 35.32 77.12C31.72 80.16 28.12 82.6 24.52 84.44C21 86.28 17.52 87.2 14.08 87.2ZM51.04 81.8C50.56 81.96 50 82.08 49.36 82.16C48.8 82.16 48.64 81.96 48.88 81.56C49.12 81.16 49.56 80.48 50.2 79.52C50.92 78.48 51.56 77.24 52.12 75.8C52.76 74.36 53.08 72.88 53.08 71.36C53.08 69.36 52.72 67.08 52 64.52C51.36 61.88 50.28 59.32 48.76 56.84C47.32 54.36 45.36 52.32 42.88 50.72C40.48 49.04 37.52 48.2 34 48.2C31.68 48.2 29.68 48.76 28 49.88C26.4 51 25.16 52.36 24.28 53.96C23.48 55.48 23.08 56.96 23.08 58.4C23.08 61.52 24 64.48 25.84 67.28C27.76 70.08 30.64 72.36 34.48 74.12C38.32 75.8 43.08 76.64 48.76 76.64C55 76.64 60.6 75.56 65.56 73.4C70.52 71.24 74.68 68.44 78.04 65C81.4 61.56 83.76 57.96 85.12 54.2C85.52 53 85.84 52.6 86.08 53C86.4 53.32 86.56 53.64 86.56 53.96C86.56 56.68 85.64 59.44 83.8 62.24C81.96 65.04 79.36 67.64 76 70.04C72.64 72.36 68.76 74.24 64.36 75.68C59.96 77.12 55.16 77.84 49.96 77.84C44.6 77.84 39.64 77.08 35.08 75.56C30.6 74.04 26.96 71.8 24.16 68.84C21.44 65.88 20.08 62.32 20.08 58.16C20.08 55.36 21.24 52.8 23.56 50.48C25.96 48.08 29.44 46.88 34 46.88C37.84 46.88 41.04 47.76 43.6 49.52C46.24 51.28 48.36 53.44 49.96 56C51.56 58.56 52.72 61.12 53.44 63.68C54.16 66.24 54.52 68.36 54.52 70.04C54.52 71.88 54.28 73.72 53.8 75.56C53.32 77.32 52.8 78.8 52.24 80C51.76 81.12 51.36 81.72 51.04 81.8ZM43.96 86.96C44.04 86.88 44.84 85.92 46.36 84.08C47.88 82.24 49.88 79.8 52.36 76.76C54.84 73.72 57.64 70.32 60.76 66.56C63.88 62.72 67.12 58.8 70.48 54.8C73.84 50.8 77.12 46.92 80.32 43.16C83.6 39.32 86.6 35.88 89.32 32.84C92.12 29.72 94.44 27.24 96.28 25.4C98.2 23.56 99.44 22.6 100 22.52C100.4 22.36 100.76 22.36 101.08 22.52C101.4 22.68 101.32 22.96 100.84 23.36C100.52 23.6 99.4 24.92 97.48 27.32C95.56 29.64 93.12 32.72 90.16 36.56C87.28 40.32 84.12 44.48 80.68 49.04C77.32 53.52 73.96 58 70.6 62.48C67.24 66.88 64.16 70.96 61.36 74.72C58.64 78.4 56.4 81.36 54.64 83.6C52.96 85.84 52.08 86.96 52 86.96C51.68 86.88 51.12 86.8 50.32 86.72C49.6 86.64 48.88 86.6 48.16 86.6C47.44 86.6 46.6 86.64 45.64 86.72C44.76 86.88 44.2 86.96 43.96 86.96Z"/>
</mask>
<path d="M14.08 87.2C11.04 87.2 8.84 86.72 7.48 85.76C6.12 84.8 5.32 83.76 5.08 82.64C4.76 81.52 4.6 80.68 4.6 80.12C4.68 79.08 5.16 78.24 6.04 77.6C6.84 76.96 7.76 76.64 8.8 76.64C9.44 76.64 10 76.8 10.48 77.12C10.96 77.36 11.2 77.92 11.2 78.8C11.2 79.6 10.92 80.16 10.36 80.48C9.8 80.8 9.2 80.96 8.56 80.96C8 80.96 7.52 80.88 7.12 80.72C6.64 80.56 6.4 80.48 6.4 80.48C6.4 82.64 7.2 84.08 8.8 84.8C10.4 85.52 12.2 85.88 14.2 85.88C17.32 85.88 20.52 85 23.8 83.24C27.16 81.48 30.6 79.16 34.12 76.28C37.64 73.32 41.24 70.04 44.92 66.44C48.68 62.76 52.52 59.08 56.44 55.4C60.68 51.4 64.88 47.44 69.04 43.52C73.28 39.52 77.36 35.92 81.28 32.72C85.2 29.52 88.84 26.96 92.2 25.04C95.56 23.12 98.56 22.16 101.2 22.16C102.08 22.16 102.44 22.32 102.28 22.64C102.2 22.96 101.56 23.2 100.36 23.36C97.56 23.84 94.48 25.12 91.12 27.2C87.84 29.2 84.36 31.8 80.68 35C77 38.12 73.2 41.56 69.28 45.32C65.44 49 61.52 52.72 57.52 56.48C53.84 60 50.12 63.56 46.36 67.16C42.68 70.76 39 74.08 35.32 77.12C31.72 80.16 28.12 82.6 24.52 84.44C21 86.28 17.52 87.2 14.08 87.2ZM51.04 81.8C50.56 81.96 50 82.08 49.36 82.16C48.8 82.16 48.64 81.96 48.88 81.56C49.12 81.16 49.56 80.48 50.2 79.52C50.92 78.48 51.56 77.24 52.12 75.8C52.76 74.36 53.08 72.88 53.08 71.36C53.08 69.36 52.72 67.08 52 64.52C51.36 61.88 50.28 59.32 48.76 56.84C47.32 54.36 45.36 52.32 42.88 50.72C40.48 49.04 37.52 48.2 34 48.2C31.68 48.2 29.68 48.76 28 49.88C26.4 51 25.16 52.36 24.28 53.96C23.48 55.48 23.08 56.96 23.08 58.4C23.08 61.52 24 64.48 25.84 67.28C27.76 70.08 30.64 72.36 34.48 74.12C38.32 75.8 43.08 76.64 48.76 76.64C55 76.64 60.6 75.56 65.56 73.4C70.52 71.24 74.68 68.44 78.04 65C81.4 61.56 83.76 57.96 85.12 54.2C85.52 53 85.84 52.6 86.08 53C86.4 53.32 86.56 53.64 86.56 53.96C86.56 56.68 85.64 59.44 83.8 62.24C81.96 65.04 79.36 67.64 76 70.04C72.64 72.36 68.76 74.24 64.36 75.68C59.96 77.12 55.16 77.84 49.96 77.84C44.6 77.84 39.64 77.08 35.08 75.56C30.6 74.04 26.96 71.8 24.16 68.84C21.44 65.88 20.08 62.32 20.08 58.16C20.08 55.36 21.24 52.8 23.56 50.48C25.96 48.08 29.44 46.88 34 46.88C37.84 46.88 41.04 47.76 43.6 49.52C46.24 51.28 48.36 53.44 49.96 56C51.56 58.56 52.72 61.12 53.44 63.68C54.16 66.24 54.52 68.36 54.52 70.04C54.52 71.88 54.28 73.72 53.8 75.56C53.32 77.32 52.8 78.8 52.24 80C51.76 81.12 51.36 81.72 51.04 81.8ZM43.96 86.96C44.04 86.88 44.84 85.92 46.36 84.08C47.88 82.24 49.88 79.8 52.36 76.76C54.84 73.72 57.64 70.32 60.76 66.56C63.88 62.72 67.12 58.8 70.48 54.8C73.84 50.8 77.12 46.92 80.32 43.16C83.6 39.32 86.6 35.88 89.32 32.84C92.12 29.72 94.44 27.24 96.28 25.4C98.2 23.56 99.44 22.6 100 22.52C100.4 22.36 100.76 22.36 101.08 22.52C101.4 22.68 101.32 22.96 100.84 23.36C100.52 23.6 99.4 24.92 97.48 27.32C95.56 29.64 93.12 32.72 90.16 36.56C87.28 40.32 84.12 44.48 80.68 49.04C77.32 53.52 73.96 58 70.6 62.48C67.24 66.88 64.16 70.96 61.36 74.72C58.64 78.4 56.4 81.36 54.64 83.6C52.96 85.84 52.08 86.96 52 86.96C51.68 86.88 51.12 86.8 50.32 86.72C49.6 86.64 48.88 86.6 48.16 86.6C47.44 86.6 46.6 86.64 45.64 86.72C44.76 86.88 44.2 86.96 43.96 86.96Z" fill="#40FF1E"/>
<path d="M7.48 85.76L6.32663 87.3939H6.32663L7.48 85.76ZM5.08 82.64L7.03561 82.2209L7.02152 82.1552L7.00305 82.0906L5.08 82.64ZM4.6 80.12L2.60589 79.9666L2.6 80.0432V80.12H4.6ZM6.04 77.6L7.21634 79.2175L7.25351 79.1904L7.28939 79.1617L6.04 77.6ZM10.48 77.12L9.3706 78.7841L9.4742 78.8532L9.58557 78.9088L10.48 77.12ZM10.36 80.48L9.36772 78.7435H9.36772L10.36 80.48ZM7.12 80.72L7.86278 78.863L7.80821 78.8412L7.75246 78.8226L7.12 80.72ZM6.4 80.48L7.03246 78.5826L4.4 77.7051V80.48H6.4ZM8.8 84.8L9.62073 82.9762H9.62073L8.8 84.8ZM23.8 83.24L22.872 81.4683L22.8632 81.473L22.8544 81.4777L23.8 83.24ZM34.12 76.28L35.3865 77.8279L35.3969 77.8194L35.4072 77.8107L34.12 76.28ZM44.92 66.44L46.3186 67.8697L46.3189 67.8693L44.92 66.44ZM56.44 55.4L57.8089 56.8581L57.8124 56.8548L56.44 55.4ZM69.04 43.52L70.4116 44.9756L70.4124 44.9748L69.04 43.52ZM81.28 32.72L80.0152 31.1707H80.0152L81.28 32.72ZM92.2 25.04L93.1923 26.7765L92.2 25.04ZM102.28 22.64L100.491 21.7456L100.393 21.9419L100.34 22.1549L102.28 22.64ZM100.36 23.36L100.096 21.3775L100.059 21.3825L100.022 21.3888L100.36 23.36ZM91.12 27.2L92.1612 28.9076L92.1727 28.9005L91.12 27.2ZM80.68 35L81.9734 36.5255L81.9829 36.5174L81.9924 36.5092L80.68 35ZM69.28 45.32L70.6638 46.764L70.6644 46.7634L69.28 45.32ZM57.52 56.48L56.1502 55.0227L56.1438 55.0287L56.1376 55.0347L57.52 56.48ZM46.36 67.16L44.9769 65.7154L44.9691 65.7228L44.9614 65.7303L46.36 67.16ZM35.32 77.12L34.0462 75.5781L34.0379 75.585L34.0296 75.5919L35.32 77.12ZM24.52 84.44L23.6098 82.6591L23.6016 82.6633L23.5935 82.6675L24.52 84.44ZM51.04 81.8L50.5549 79.8597L50.4804 79.8783L50.4075 79.9026L51.04 81.8ZM49.36 82.16V84.16H49.4845L49.6081 84.1445L49.36 82.16ZM48.88 81.56L50.595 82.589L50.595 82.589L48.88 81.56ZM50.2 79.52L48.5556 78.3816L48.5456 78.396L48.5359 78.4106L50.2 79.52ZM52.12 75.8L50.2924 74.9877L50.2731 75.031L50.256 75.0751L52.12 75.8ZM52 64.52L50.0563 64.9912L50.0649 65.0265L50.0747 65.0615L52 64.52ZM48.76 56.84L47.0304 57.8443L47.0424 57.8648L47.0548 57.8851L48.76 56.84ZM42.88 50.72L41.7331 52.3585L41.764 52.3801L41.7957 52.4006L42.88 50.72ZM28 49.88L26.8906 48.2159L26.8717 48.2285L26.8531 48.2415L28 49.88ZM24.28 53.96L22.5276 52.9962L22.5187 53.0122L22.5102 53.0285L24.28 53.96ZM25.84 67.28L24.1686 68.3784L24.1794 68.3948L24.1905 68.4111L25.84 67.28ZM34.48 74.12L33.6467 75.9381L33.6625 75.9454L33.6784 75.9523L34.48 74.12ZM65.56 73.4L66.3585 75.2337V75.2337L65.56 73.4ZM78.04 65L79.4708 66.3975V66.3975L78.04 65ZM85.12 54.2L87.0008 54.8803L87.0094 54.8565L87.0174 54.8324L85.12 54.2ZM86.08 53L84.365 54.029L84.4917 54.2401L84.6658 54.4142L86.08 53ZM83.8 62.24L82.1286 61.1416V61.1416L83.8 62.24ZM76 70.04L77.1364 71.6858L77.1495 71.6767L77.1625 71.6675L76 70.04ZM64.36 75.68L64.9821 77.5808V77.5808L64.36 75.68ZM35.08 75.56L34.4374 77.454L34.4475 77.4574L35.08 75.56ZM24.16 68.84L22.6873 70.1932L22.6971 70.2039L22.7071 70.2144L24.16 68.84ZM23.56 50.48L24.9742 51.8942H24.9742L23.56 50.48ZM43.6 49.52L42.4669 51.1681L42.4787 51.1762L42.4906 51.1841L43.6 49.52ZM49.96 56L51.656 54.94H51.656L49.96 56ZM53.44 63.68L51.5147 64.2215V64.2215L53.44 63.68ZM53.8 75.56L55.7295 76.0862L55.7324 76.0755L55.7352 76.0648L53.8 75.56ZM52.24 80L50.4276 79.1542L50.4142 79.183L50.4017 79.2122L52.24 80ZM43.96 86.96L42.5458 85.5458L39.1316 88.96H43.96V86.96ZM46.36 84.08L47.9019 85.3538L47.9019 85.3538L46.36 84.08ZM52.36 76.76L50.8103 75.4957V75.4957L52.36 76.76ZM60.76 66.56L62.2991 67.8371L62.3057 67.8292L62.3122 67.8212L60.76 66.56ZM70.48 54.8L72.0114 56.0864V56.0864L70.48 54.8ZM80.32 43.16L78.7993 41.861L78.7969 41.8638L80.32 43.16ZM89.32 32.84L87.8315 31.5042L87.8295 31.5064L89.32 32.84ZM96.28 25.4L94.8962 23.956L94.8808 23.9707L94.8658 23.9858L96.28 25.4ZM100 22.52L100.283 24.4999L100.52 24.466L100.743 24.3769L100 22.52ZM101.08 22.52L101.974 20.7311L101.974 20.7311L101.08 22.52ZM100.84 23.36L102.04 24.96L102.081 24.9293L102.12 24.8964L100.84 23.36ZM97.48 27.32L99.0208 28.5951L99.0314 28.5823L99.0417 28.5694L97.48 27.32ZM90.16 36.56L88.576 35.339L88.5722 35.3438L90.16 36.56ZM80.68 49.04L79.0834 47.8355L79.08 47.84L80.68 49.04ZM70.6 62.48L72.1895 63.6938L72.1948 63.6869L72.2 63.68L70.6 62.48ZM61.36 74.72L59.7559 73.5255L59.7516 73.5312L61.36 74.72ZM54.64 83.6L53.0674 82.3644L53.0535 82.382L53.04 82.4L54.64 83.6ZM52 86.96L51.5149 88.9003L51.7538 88.96H52V86.96ZM50.32 86.72L50.0991 88.7078L50.1101 88.709L50.121 88.7101L50.32 86.72ZM45.64 86.72L45.4739 84.7269L45.3775 84.7349L45.2822 84.7523L45.64 86.72ZM14.08 87.2V85.2C11.1569 85.2 9.47557 84.7206 8.63337 84.1261L7.48 85.76L6.32663 87.3939C8.20443 88.7194 10.9231 89.2 14.08 89.2V87.2ZM7.48 85.76L8.63337 84.1261C7.49991 83.326 7.1311 82.6666 7.03561 82.2209L5.08 82.64L3.1244 83.0591C3.50891 84.8534 4.74009 86.274 6.32663 87.3939L7.48 85.76ZM5.08 82.64L7.00305 82.0906C6.69146 81 6.6 80.3852 6.6 80.12H4.6H2.6C2.6 80.9748 2.82854 82.04 3.15695 83.1894L5.08 82.64ZM4.6 80.12L6.59411 80.2734C6.62699 79.8459 6.78682 79.5298 7.21634 79.2175L6.04 77.6L4.86366 75.9825C3.53318 76.9501 2.73301 78.3141 2.60589 79.9666L4.6 80.12ZM6.04 77.6L7.28939 79.1617C7.72897 78.8101 8.20667 78.64 8.8 78.64V76.64V74.64C7.31333 74.64 5.95103 75.1099 4.79061 76.0383L6.04 77.6ZM8.8 76.64V78.64C9.09003 78.64 9.25459 78.7068 9.3706 78.7841L10.48 77.12L11.5894 75.4559C10.7454 74.8932 9.78997 74.64 8.8 74.64V76.64ZM10.48 77.12L9.58557 78.9088C9.48107 78.8566 9.38537 78.7834 9.30841 78.6979C9.23387 78.6151 9.19676 78.543 9.18171 78.5078C9.16771 78.4752 9.17351 78.4766 9.18221 78.5288C9.19087 78.5807 9.2 78.6686 9.2 78.8H11.2H13.2C13.2 77.6828 12.8973 76.0926 11.3744 75.3311L10.48 77.12ZM11.2 78.8H9.2C9.2 78.9732 9.16918 78.9895 9.20115 78.9256C9.21767 78.8925 9.24412 78.8525 9.28079 78.814C9.31711 78.776 9.34999 78.7536 9.36772 78.7435L10.36 80.48L11.3523 82.2165C12.6929 81.4504 13.2 80.1159 13.2 78.8H11.2ZM10.36 80.48L9.36772 78.7435C9.10745 78.8922 8.84911 78.96 8.56 78.96V80.96V82.96C9.55089 82.96 10.4926 82.7078 11.3523 82.2165L10.36 80.48ZM8.56 80.96V78.96C8.18183 78.96 7.96737 78.9049 7.86278 78.863L7.12 80.72L6.37722 82.5769C7.07263 82.8551 7.81817 82.96 8.56 82.96V80.96ZM7.12 80.72L7.75246 78.8226C7.75152 78.8223 7.75058 78.822 7.74965 78.8217C7.74871 78.8214 7.74778 78.8211 7.74684 78.8208C7.74591 78.8204 7.74497 78.8201 7.74404 78.8198C7.74311 78.8195 7.74218 78.8192 7.74125 78.8189C7.74032 78.8186 7.73939 78.8183 7.73846 78.818C7.73753 78.8177 7.73661 78.8173 7.73568 78.817C7.73475 78.8167 7.73383 78.8164 7.7329 78.8161C7.73198 78.8158 7.73105 78.8155 7.73013 78.8152C7.72921 78.8149 7.72829 78.8146 7.72737 78.8143C7.72644 78.814 7.72552 78.8137 7.72461 78.8133C7.72369 78.813 7.72277 78.8127 7.72185 78.8124C7.72093 78.8121 7.72002 78.8118 7.7191 78.8115C7.71819 78.8112 7.71727 78.8109 7.71636 78.8106C7.71544 78.8103 7.71453 78.81 7.71362 78.8097C7.71271 78.8094 7.7118 78.8091 7.71089 78.8088C7.70998 78.8085 7.70907 78.8082 7.70816 78.8079C7.70725 78.8076 7.70634 78.8073 7.70544 78.807C7.70453 78.8067 7.70363 78.8064 7.70272 78.806C7.70182 78.8058 7.70091 78.8054 7.70001 78.8051C7.69911 78.8048 7.6982 78.8045 7.6973 78.8042C7.6964 78.8039 7.6955 78.8036 7.6946 78.8033C7.69371 78.803 7.69281 78.8027 7.69191 78.8024C7.69101 78.8022 7.69012 78.8018 7.68922 78.8015C7.68833 78.8012 7.68743 78.801 7.68654 78.8007C7.68564 78.8004 7.68475 78.8001 7.68386 78.7998C7.68297 78.7995 7.68208 78.7992 7.68119 78.7989C7.6803 78.7986 7.67941 78.7983 7.67852 78.798C7.67763 78.7977 7.67675 78.7974 7.67586 78.7971C7.67497 78.7968 7.67409 78.7965 7.6732 78.7962C7.67232 78.7959 7.67144 78.7956 7.67055 78.7953C7.66967 78.795 7.66879 78.7947 7.66791 78.7944C7.66703 78.7942 7.66615 78.7939 7.66527 78.7936C7.66439 78.7933 7.66351 78.793 7.66263 78.7927C7.66176 78.7924 7.66088 78.7921 7.66001 78.7918C7.65913 78.7915 7.65826 78.7912 7.65738 78.7909C7.65651 78.7906 7.65564 78.7904 7.65476 78.7901C7.65389 78.7898 7.65302 78.7895 7.65215 78.7892C7.65128 78.7889 7.65041 78.7886 7.64955 78.7883C7.64868 78.788 7.64781 78.7877 7.64695 78.7875C7.64608 78.7872 7.64521 78.7869 7.64435 78.7866C7.64349 78.7863 7.64262 78.786 7.64176 78.7857C7.6409 78.7854 7.64004 78.7852 7.63918 78.7849C7.63832 78.7846 7.63746 78.7843 7.6366 78.784C7.63574 78.7837 7.63488 78.7834 7.63402 78.7832C7.63317 78.7829 7.63231 78.7826 7.63145 78.7823C7.6306 78.782 7.62975 78.7817 7.62889 78.7814C7.62804 78.7812 7.62719 78.7809 7.62634 78.7806C7.62548 78.7803 7.62463 78.78 7.62378 78.7797C7.62293 78.7795 7.62209 78.7792 7.62124 78.7789C7.62039 78.7786 7.61954 78.7783 7.6187 78.778C7.61785 78.7778 7.61701 78.7775 7.61616 78.7772C7.61532 78.7769 7.61447 78.7766 7.61363 78.7764C7.61279 78.7761 7.61195 78.7758 7.61111 78.7755C7.61027 78.7752 7.60943 78.775 7.60859 78.7747C7.60775 78.7744 7.60691 78.7741 7.60608 78.7738C7.60524 78.7736 7.6044 78.7733 7.60357 78.773C7.60273 78.7727 7.6019 78.7724 7.60107 78.7722C7.60023 78.7719 7.5994 78.7716 7.59857 78.7713C7.59774 78.7711 7.59691 78.7708 7.59608 78.7705C7.59525 78.7702 7.59442 78.77 7.59359 78.7697C7.59277 78.7694 7.59194 78.7691 7.59111 78.7688C7.59029 78.7686 7.58946 78.7683 7.58864 78.768C7.58781 78.7677 7.58699 78.7675 7.58617 78.7672C7.58535 78.7669 7.58453 78.7667 7.58371 78.7664C7.58289 78.7661 7.58207 78.7658 7.58125 78.7656C7.58043 78.7653 7.57961 78.765 7.57879 78.7647C7.57798 78.7645 7.57716 78.7642 7.57635 78.7639C7.57553 78.7637 7.57472 78.7634 7.57391 78.7631C7.57309 78.7628 7.57228 78.7626 7.57147 78.7623C7.57066 78.762 7.56985 78.7618 7.56904 78.7615C7.56823 78.7612 7.56742 78.761 7.56661 78.7607C7.56581 78.7604 7.565 78.7601 7.56419 78.7599C7.56339 78.7596 7.56258 78.7593 7.56178 78.7591C7.56098 78.7588 7.56017 78.7585 7.55937 78.7583C7.55857 78.758 7.55777 78.7577 7.55697 78.7575C7.55617 78.7572 7.55537 78.7569 7.55457 78.7567C7.55377 78.7564 7.55297 78.7561 7.55218 78.7559C7.55138 78.7556 7.55059 78.7553 7.54979 78.7551C7.549 78.7548 7.5482 78.7545 7.54741 78.7543C7.54662 78.754 7.54582 78.7537 7.54503 78.7535C7.54424 78.7532 7.54345 78.753 7.54266 78.7527C7.54187 78.7524 7.54109 78.7522 7.5403 78.7519C7.53951 78.7516 7.53872 78.7514 7.53794 78.7511C7.53715 78.7509 7.53637 78.7506 7.53559 78.7503C7.5348 78.7501 7.53402 78.7498 7.53324 78.7496C7.53246 78.7493 7.53167 78.749 7.53089 78.7488C7.53011 78.7485 7.52933 78.7483 7.52856 78.748C7.52778 78.7477 7.527 78.7475 7.52622 78.7472C7.52545 78.747 7.52467 78.7467 7.5239 78.7464C7.52312 78.7462 7.52235 78.7459 7.52158 78.7457C7.52081 78.7454 7.52003 78.7452 7.51926 78.7449C7.51849 78.7446 7.51772 78.7444 7.51695 78.7441C7.51618 78.7439 7.51542 78.7436 7.51465 78.7434C7.51388 78.7431 7.51311 78.7428 7.51235 78.7426C7.51158 78.7423 7.51082 78.7421 7.51006 78.7418C7.50929 78.7416 7.50853 78.7413 7.50777 78.7411C7.50701 78.7408 7.50625 78.7406 7.50549 78.7403C7.50473 78.7401 7.50397 78.7398 7.50321 78.7395C7.50245 78.7393 7.50169 78.739 7.50094 78.7388C7.50018 78.7385 7.49943 78.7383 7.49867 78.738C7.49792 78.7378 7.49716 78.7375 7.49641 78.7373C7.49566 78.737 7.49491 78.7368 7.49416 78.7365C7.49341 78.7363 7.49266 78.736 7.49191 78.7358C7.49116 78.7355 7.49041 78.7353 7.48966 78.735C7.48892 78.7348 7.48817 78.7345 7.48742 78.7343C7.48668 78.734 7.48593 78.7338 7.48519 78.7335C7.48445 78.7333 7.48371 78.733 7.48296 78.7328C7.48222 78.7325 7.48148 78.7323 7.48074 78.7321C7.48 78.7318 7.47926 78.7316 7.47853 78.7313C7.47779 78.7311 7.47705 78.7308 7.47631 78.7306C7.47558 78.7303 7.47484 78.7301 7.47411 78.7298C7.47337 78.7296 7.47264 78.7294 7.47191 78.7291C7.47118 78.7289 7.47044 78.7286 7.46971 78.7284C7.46898 78.7281 7.46825 78.7279 7.46753 78.7276C7.4668 78.7274 7.46607 78.7272 7.46534 78.7269C7.46461 78.7267 7.46389 78.7264 7.46316 78.7262C7.46244 78.726 7.46171 78.7257 7.46099 78.7255C7.46027 78.7252 7.45955 78.725 7.45882 78.7247C7.4581 78.7245 7.45738 78.7243 7.45666 78.724C7.45594 78.7238 7.45522 78.7236 7.45451 78.7233C7.45379 78.7231 7.45307 78.7228 7.45236 78.7226C7.45164 78.7224 7.45092 78.7221 7.45021 78.7219C7.4495 78.7216 7.44878 78.7214 7.44807 78.7212C7.44736 78.7209 7.44665 78.7207 7.44594 78.7205C7.44523 78.7202 7.44452 78.72 7.44381 78.7197C7.4431 78.7195 7.44239 78.7193 7.44169 78.719C7.44098 78.7188 7.44027 78.7186 7.43957 78.7183C7.43886 78.7181 7.43816 78.7179 7.43746 78.7176C7.43675 78.7174 7.43605 78.7172 7.43535 78.7169C7.43465 78.7167 7.43395 78.7165 7.43325 78.7162C7.43255 78.716 7.43185 78.7158 7.43115 78.7155C7.43045 78.7153 7.42976 78.7151 7.42906 78.7148C7.42837 78.7146 7.42767 78.7144 7.42698 78.7141C7.42628 78.7139 7.42559 78.7137 7.4249 78.7134C7.42421 78.7132 7.42351 78.713 7.42282 78.7127C7.42213 78.7125 7.42144 78.7123 7.42076 78.7121C7.42007 78.7118 7.41938 78.7116 7.41869 78.7114C7.41801 78.7111 7.41732 78.7109 7.41664 78.7107C7.41595 78.7105 7.41527 78.7102 7.41458 78.71C7.4139 78.7098 7.41322 78.7096 7.41254 78.7093C7.41186 78.7091 7.41118 78.7089 7.4105 78.7086C7.40982 78.7084 7.40914 78.7082 7.40846 78.708C7.40779 78.7077 7.40711 78.7075 7.40643 78.7073C7.40576 78.7071 7.40508 78.7068 7.40441 78.7066C7.40374 78.7064 7.40306 78.7062 7.40239 78.7059C7.40172 78.7057 7.40105 78.7055 7.40038 78.7053C7.39971 78.705 7.39904 78.7048 7.39837 78.7046C7.3977 78.7044 7.39703 78.7042 7.39637 78.7039C7.3957 78.7037 7.39503 78.7035 7.39437 78.7033C7.39371 78.703 7.39304 78.7028 7.39238 78.7026C7.39172 78.7024 7.39105 78.7022 7.39039 78.7019C7.38973 78.7017 7.38907 78.7015 7.38841 78.7013C7.38775 78.7011 7.3871 78.7008 7.38644 78.7006C7.38578 78.7004 7.38512 78.7002 7.38447 78.7C7.38381 78.6997 7.38316 78.6995 7.3825 78.6993C7.38185 78.6991 7.3812 78.6989 7.38055 78.6987C7.37989 78.6984 7.37924 78.6982 7.37859 78.698C7.37794 78.6978 7.37729 78.6976 7.37665 78.6974C7.376 78.6971 7.37535 78.6969 7.3747 78.6967C7.37406 78.6965 7.37341 78.6963 7.37277 78.6961C7.37212 78.6958 7.37148 78.6956 7.37084 78.6954C7.37019 78.6952 7.36955 78.695 7.36891 78.6948C7.36827 78.6946 7.36763 78.6944 7.36699 78.6941C7.36635 78.6939 7.36571 78.6937 7.36508 78.6935C7.36444 78.6933 7.3638 78.6931 7.36317 78.6929C7.36253 78.6927 7.3619 78.6924 7.36127 78.6922C7.36063 78.692 7.36 78.6918 7.35937 78.6916C7.35874 78.6914 7.35811 78.6912 7.35748 78.691C7.35685 78.6908 7.35622 78.6905 7.35559 78.6903C7.35496 78.6901 7.35433 78.6899 7.35371 78.6897C7.35308 78.6895 7.35245 78.6893 7.35183 78.6891C7.35121 78.6889 7.35058 78.6887 7.34996 78.6885C7.34934 78.6883 7.34872 78.688 7.3481 78.6878C7.34747 78.6876 7.34686 78.6874 7.34624 78.6872C7.34562 78.687 7.345 78.6868 7.34438 78.6866C7.34377 78.6864 7.34315 78.6862 7.34253 78.686C7.34192 78.6858 7.3413 78.6856 7.34069 78.6854C7.34008 78.6852 7.33947 78.685 7.33885 78.6848C7.33824 78.6846 7.33763 78.6844 7.33702 78.6842C7.33641 78.6839 7.3358 78.6837 7.33519 78.6835C7.33459 78.6833 7.33398 78.6831 7.33337 78.6829C7.33277 78.6827 7.33216 78.6825 7.33156 78.6823C7.33095 78.6821 7.33035 78.6819 7.32975 78.6817C7.32915 78.6815 7.32854 78.6813 7.32794 78.6811C7.32734 78.6809 7.32674 78.6807 7.32614 78.6805C7.32555 78.6803 7.32495 78.6801 7.32435 78.6799C7.32375 78.6797 7.32316 78.6795 7.32256 78.6793C7.32197 78.6791 7.32137 78.6789 7.32078 78.6787C7.32019 78.6785 7.3196 78.6783 7.319 78.6781C7.31841 78.6779 7.31782 78.6778 7.31723 78.6776C7.31664 78.6774 7.31605 78.6772 7.31547 78.677C7.31488 78.6768 7.31429 78.6766 7.31371 78.6764C7.31312 78.6762 7.31253 78.676 7.31195 78.6758C7.31137 78.6756 7.31078 78.6754 7.3102 78.6752C7.30962 78.675 7.30904 78.6748 7.30846 78.6746C7.30788 78.6744 7.3073 78.6742 7.30672 78.6741C7.30614 78.6739 7.30556 78.6737 7.30498 78.6735C7.30441 78.6733 7.30383 78.6731 7.30326 78.6729C7.30268 78.6727 7.30211 78.6725 7.30154 78.6723C7.30096 78.6721 7.30039 78.6719 7.29982 78.6717C7.29925 78.6716 7.29868 78.6714 7.29811 78.6712C7.29754 78.671 7.29697 78.6708 7.2964 78.6706C7.29583 78.6704 7.29527 78.6702 7.2947 78.67C7.29414 78.6699 7.29357 78.6697 7.29301 78.6695C7.29244 78.6693 7.29188 78.6691 7.29132 78.6689C7.29076 78.6687 7.29019 78.6685 7.28963 78.6684C7.28907 78.6682 7.28851 78.668 7.28796 78.6678C7.2874 78.6676 7.28684 78.6674 7.28628 78.6672C7.28573 78.667 7.28517 78.6669 7.28462 78.6667C7.28406 78.6665 7.28351 78.6663 7.28295 78.6661C7.2824 78.6659 7.28185 78.6658 7.2813 78.6656C7.28075 78.6654 7.2802 78.6652 7.27965 78.665C7.2791 78.6648 7.27855 78.6647 7.278 78.6645C7.27746 78.6643 7.27691 78.6641 7.27636 78.6639C7.27582 78.6638 7.27527 78.6636 7.27473 78.6634C7.27419 78.6632 7.27364 78.663 7.2731 78.6628C7.27256 78.6627 7.27202 78.6625 7.27148 78.6623C7.27094 78.6621 7.2704 78.6619 7.26986 78.6618C7.26932 78.6616 7.26878 78.6614 7.26825 78.6612C7.26771 78.661 7.26717 78.6609 7.26664 78.6607C7.26611 78.6605 7.26557 78.6603 7.26504 78.6602C7.26451 78.66 7.26397 78.6598 7.26344 78.6596C7.26291 78.6594 7.26238 78.6593 7.26185 78.6591C7.26132 78.6589 7.2608 78.6587 7.26027 78.6586C7.25974 78.6584 7.25921 78.6582 7.25869 78.658C7.25816 78.6579 7.25764 78.6577 7.25711 78.6575C7.25659 78.6573 7.25607 78.6572 7.25555 78.657C7.25502 78.6568 7.2545 78.6566 7.25398 78.6565C7.25346 78.6563 7.25294 78.6561 7.25243 78.656C7.25191 78.6558 7.25139 78.6556 7.25087 78.6554C7.25036 78.6553 7.24984 78.6551 7.24933 78.6549C7.24881 78.6548 7.2483 78.6546 7.24779 78.6544C7.24727 78.6542 7.24676 78.6541 7.24625 78.6539C7.24574 78.6537 7.24523 78.6536 7.24472 78.6534C7.24421 78.6532 7.24371 78.653 7.2432 78.6529C7.24269 78.6527 7.24218 78.6525 7.24168 78.6524C7.24117 78.6522 7.24067 78.652 7.24017 78.6519C7.23966 78.6517 7.23916 78.6515 7.23866 78.6514C7.23816 78.6512 7.23766 78.651 7.23716 78.6509C7.23666 78.6507 7.23616 78.6505 7.23566 78.6504C7.23516 78.6502 7.23466 78.65 7.23417 78.6499C7.23367 78.6497 7.23318 78.6495 7.23268 78.6494C7.23219 78.6492 7.23169 78.649 7.2312 78.6489C7.23071 78.6487 7.23022 78.6485 7.22973 78.6484C7.22924 78.6482 7.22875 78.6481 7.22826 78.6479C7.22777 78.6477 7.22728 78.6476 7.22679 78.6474C7.22631 78.6472 7.22582 78.6471 7.22533 78.6469C7.22485 78.6468 7.22436 78.6466 7.22388 78.6464C7.2234 78.6463 7.22292 78.6461 7.22243 78.646C7.22195 78.6458 7.22147 78.6456 7.22099 78.6455C7.22051 78.6453 7.22003 78.6452 7.21956 78.645C7.21908 78.6448 7.2186 78.6447 7.21812 78.6445C7.21765 78.6444 7.21717 78.6442 7.2167 78.644C7.21622 78.6439 7.21575 78.6437 7.21528 78.6436C7.21481 78.6434 7.21434 78.6433 7.21386 78.6431C7.21339 78.6429 7.21292 78.6428 7.21246 78.6426C7.21199 78.6425 7.21152 78.6423 7.21105 78.6422C7.21058 78.642 7.21012 78.6418 7.20965 78.6417C7.20919 78.6415 7.20872 78.6414 7.20826 78.6412C7.2078 78.6411 7.20734 78.6409 7.20687 78.6408C7.20641 78.6406 7.20595 78.6405 7.20549 78.6403C7.20503 78.6402 7.20457 78.64 7.20412 78.6398C7.20366 78.6397 7.2032 78.6395 7.20275 78.6394C7.20229 78.6392 7.20184 78.6391 7.20138 78.6389C7.20093 78.6388 7.20047 78.6386 7.20002 78.6385C7.19957 78.6383 7.19912 78.6382 7.19867 78.638C7.19822 78.6379 7.19777 78.6377 7.19732 78.6376C7.19687 78.6374 7.19642 78.6373 7.19598 78.6371C7.19553 78.637 7.19508 78.6368 7.19464 78.6367C7.19419 78.6365 7.19375 78.6364 7.19331 78.6362C7.19286 78.6361 7.19242 78.636 7.19198 78.6358C7.19154 78.6357 7.1911 78.6355 7.19066 78.6354C7.19022 78.6352 7.18978 78.6351 7.18934 78.6349C7.18891 78.6348 7.18847 78.6346 7.18803 78.6345C7.1876 78.6343 7.18716 78.6342 7.18673 78.6341C7.18629 78.6339 7.18586 78.6338 7.18543 78.6336C7.185 78.6335 7.18457 78.6333 7.18414 78.6332C7.18371 78.633 7.18328 78.6329 7.18285 78.6328C7.18242 78.6326 7.18199 78.6325 7.18156 78.6323C7.18114 78.6322 7.18071 78.632 7.18029 78.6319C7.17986 78.6318 7.17944 78.6316 7.17902 78.6315C7.17859 78.6313 7.17817 78.6312 7.17775 78.6311C7.17733 78.6309 7.17691 78.6308 7.17649 78.6306C7.17607 78.6305 7.17565 78.6304 7.17523 78.6302C7.17482 78.6301 7.1744 78.6299 7.17398 78.6298C7.17357 78.6297 7.17315 78.6295 7.17274 78.6294C7.17233 78.6293 7.17191 78.6291 7.1715 78.629C7.17109 78.6288 7.17068 78.6287 7.17027 78.6286C7.16986 78.6284 7.16945 78.6283 7.16904 78.6282C7.16863 78.628 7.16822 78.6279 7.16782 78.6277C7.16741 78.6276 7.16701 78.6275 7.1666 78.6273C7.1662 78.6272 7.16579 78.6271 7.16539 78.6269C7.16499 78.6268 7.16459 78.6267 7.16418 78.6265C7.16378 78.6264 7.16338 78.6263 7.16298 78.6261C7.16258 78.626 7.16219 78.6259 7.16179 78.6257C7.16139 78.6256 7.161 78.6255 7.1606 78.6253C7.1602 78.6252 7.15981 78.6251 7.15942 78.6249C7.15902 78.6248 7.15863 78.6247 7.15824 78.6246C7.15785 78.6244 7.15746 78.6243 7.15707 78.6242C7.15668 78.624 7.15629 78.6239 7.1559 78.6238C7.15551 78.6236 7.15512 78.6235 7.15474 78.6234C7.15435 78.6233 7.15396 78.6231 7.15358 78.623C7.1532 78.6229 7.15281 78.6227 7.15243 78.6226C7.15205 78.6225 7.15166 78.6224 7.15128 78.6222C7.1509 78.6221 7.15052 78.622 7.15014 78.6219C7.14976 78.6217 7.14939 78.6216 7.14901 78.6215C7.14863 78.6214 7.14826 78.6212 7.14788 78.6211C7.14751 78.621 7.14713 78.6209 7.14676 78.6207C7.14638 78.6206 7.14601 78.6205 7.14564 78.6204C7.14527 78.6202 7.1449 78.6201 7.14453 78.62C7.14416 78.6199 7.14379 78.6197 7.14342 78.6196C7.14305 78.6195 7.14268 78.6194 7.14232 78.6193C7.14195 78.6191 7.14159 78.619 7.14122 78.6189C7.14086 78.6188 7.1405 78.6186 7.14013 78.6185C7.13977 78.6184 7.13941 78.6183 7.13905 78.6182C7.13869 78.618 7.13833 78.6179 7.13797 78.6178C7.13761 78.6177 7.13725 78.6176 7.13689 78.6174C7.13654 78.6173 7.13618 78.6172 7.13583 78.6171C7.13547 78.617 7.13512 78.6168 7.13476 78.6167C7.13441 78.6166 7.13406 78.6165 7.13371 78.6164C7.13335 78.6163 7.133 78.6161 7.13265 78.616C7.1323 78.6159 7.13196 78.6158 7.13161 78.6157C7.13126 78.6156 7.13091 78.6154 7.13057 78.6153C7.13022 78.6152 7.12988 78.6151 7.12953 78.615C7.12919 78.6149 7.12884 78.6148 7.1285 78.6146C7.12816 78.6145 7.12782 78.6144 7.12748 78.6143C7.12714 78.6142 7.1268 78.6141 7.12646 78.614C7.12612 78.6138 7.12578 78.6137 7.12544 78.6136C7.12511 78.6135 7.12477 78.6134 7.12444 78.6133C7.1241 78.6132 7.12377 78.6131 7.12343 78.613C7.1231 78.6128 7.12277 78.6127 7.12244 78.6126C7.1221 78.6125 7.12177 78.6124 7.12144 78.6123C7.12112 78.6122 7.12079 78.6121 7.12046 78.612C7.12013 78.6119 7.1198 78.6117 7.11948 78.6116C7.11915 78.6115 7.11883 78.6114 7.1185 78.6113C7.11818 78.6112 7.11786 78.6111 7.11753 78.611C7.11721 78.6109 7.11689 78.6108 7.11657 78.6107C7.11625 78.6106 7.11593 78.6105 7.11561 78.6103C7.11529 78.6102 7.11497 78.6101 7.11466 78.61C7.11434 78.6099 7.11403 78.6098 7.11371 78.6097C7.1134 78.6096 7.11308 78.6095 7.11277 78.6094C7.11246 78.6093 7.11214 78.6092 7.11183 78.6091C7.11152 78.609 7.11121 78.6089 7.1109 78.6088C7.11059 78.6087 7.11028 78.6086 7.10998 78.6085C7.10967 78.6084 7.10936 78.6083 7.10905 78.6082C7.10875 78.6081 7.10844 78.608 7.10814 78.6079C7.10784 78.6078 7.10753 78.6077 7.10723 78.6076C7.10693 78.6075 7.10663 78.6074 7.10633 78.6072C7.10603 78.6072 7.10573 78.6071 7.10543 78.607C7.10513 78.6069 7.10483 78.6068 7.10454 78.6067C7.10424 78.6066 7.10394 78.6065 7.10365 78.6064C7.10335 78.6063 7.10306 78.6062 7.10277 78.6061C7.10248 78.606 7.10218 78.6059 7.10189 78.6058C7.1016 78.6057 7.10131 78.6056 7.10102 78.6055C7.10073 78.6054 7.10044 78.6053 7.10016 78.6052C7.09987 78.6051 7.09958 78.605 7.0993 78.6049C7.09901 78.6048 7.09873 78.6047 7.09844 78.6046C7.09816 78.6045 7.09788 78.6044 7.09759 78.6043C7.09731 78.6042 7.09703 78.6042 7.09675 78.6041C7.09647 78.604 7.09619 78.6039 7.09591 78.6038C7.09563 78.6037 7.09536 78.6036 7.09508 78.6035C7.0948 78.6034 7.09453 78.6033 7.09425 78.6032C7.09398 78.6031 7.09371 78.603 7.09343 78.603C7.09316 78.6029 7.09289 78.6028 7.09262 78.6027C7.09235 78.6026 7.09208 78.6025 7.09181 78.6024C7.09154 78.6023 7.09127 78.6022 7.091 78.6021C7.09073 78.6021 7.09047 78.602 7.0902 78.6019C7.08994 78.6018 7.08967 78.6017 7.08941 78.6016C7.08915 78.6015 7.08888 78.6014 7.08862 78.6014C7.08836 78.6013 7.0881 78.6012 7.08784 78.6011C7.08758 78.601 7.08732 78.6009 7.08706 78.6008C7.0868 78.6007 7.08654 78.6007 7.08629 78.6006C7.08603 78.6005 7.08578 78.6004 7.08552 78.6003C7.08527 78.6002 7.08501 78.6001 7.08476 78.6001C7.08451 78.6 7.08426 78.5999 7.08401 78.5998C7.08376 78.5997 7.08351 78.5996 7.08326 78.5996C7.08301 78.5995 7.08276 78.5994 7.08251 78.5993C7.08226 78.5992 7.08202 78.5991 7.08177 78.5991C7.08153 78.599 7.08128 78.5989 7.08104 78.5988C7.0808 78.5987 7.08055 78.5987 7.08031 78.5986C7.08007 78.5985 7.07983 78.5984 7.07959 78.5983C7.07935 78.5983 7.07911 78.5982 7.07887 78.5981C7.07863 78.598 7.0784 78.5979 7.07816 78.5979C7.07793 78.5978 7.07769 78.5977 7.07746 78.5976C7.07722 78.5976 7.07699 78.5975 7.07675 78.5974C7.07652 78.5973 7.07629 78.5972 7.07606 78.5972C7.07583 78.5971 7.0756 78.597 7.07537 78.5969C7.07514 78.5969 7.07491 78.5968 7.07469 78.5967C7.07446 78.5966 7.07423 78.5966 7.07401 78.5965C7.07378 78.5964 7.07356 78.5963 7.07334 78.5963C7.07311 78.5962 7.07289 78.5961 7.07267 78.596C7.07245 78.596 7.07223 78.5959 7.07201 78.5958C7.07179 78.5957 7.07157 78.5957 7.07135 78.5956C7.07113 78.5955 7.07092 78.5954 7.0707 78.5954C7.07048 78.5953 7.07027 78.5952 7.07005 78.5952C7.06984 78.5951 7.06963 78.595 7.06941 78.595C7.0692 78.5949 7.06899 78.5948 7.06878 78.5947C7.06857 78.5947 7.06836 78.5946 7.06815 78.5945C7.06794 78.5945 7.06773 78.5944 7.06753 78.5943C7.06732 78.5942 7.06711 78.5942 7.06691 78.5941C7.0667 78.594 7.0665 78.594 7.0663 78.5939C7.06609 78.5938 7.06589 78.5938 7.06569 78.5937C7.06549 78.5936 7.06529 78.5936 7.06509 78.5935C7.06489 78.5934 7.06469 78.5934 7.06449 78.5933C7.06429 78.5932 7.0641 78.5932 7.0639 78.5931C7.06371 78.593 7.06351 78.593 7.06332 78.5929C7.06312 78.5929 7.06293 78.5928 7.06274 78.5927C7.06254 78.5927 7.06235 78.5926 7.06216 78.5925C7.06197 78.5925 7.06178 78.5924 7.06159 78.5923C7.06141 78.5923 7.06122 78.5922 7.06103 78.5922C7.06084 78.5921 7.06066 78.592 7.06047 78.592C7.06029 78.5919 7.0601 78.5918 7.05992 78.5918C7.05974 78.5917 7.05956 78.5917 7.05937 78.5916C7.05919 78.5915 7.05901 78.5915 7.05883 78.5914C7.05865 78.5914 7.05848 78.5913 7.0583 78.5912C7.05812 78.5912 7.05794 78.5911 7.05777 78.5911C7.05759 78.591 7.05742 78.5909 7.05724 78.5909C7.05707 78.5908 7.0569 78.5908 7.05672 78.5907C7.05655 78.5907 7.05638 78.5906 7.05621 78.5905C7.05604 78.5905 7.05587 78.5904 7.0557 78.5904C7.05553 78.5903 7.05537 78.5903 7.0552 78.5902C7.05503 78.5902 7.05487 78.5901 7.0547 78.59C7.05454 78.59 7.05437 78.5899 7.05421 78.5899C7.05405 78.5898 7.05389 78.5898 7.05373 78.5897C7.05356 78.5897 7.0534 78.5896 7.05324 78.5896C7.05309 78.5895 7.05293 78.5895 7.05277 78.5894C7.05261 78.5894 7.05246 78.5893 7.0523 78.5892C7.05214 78.5892 7.05199 78.5891 7.05184 78.5891C7.05168 78.589 7.05153 78.589 7.05138 78.5889C7.05122 78.5889 7.05107 78.5888 7.05092 78.5888C7.05077 78.5887 7.05062 78.5887 7.05048 78.5886C7.05033 78.5886 7.05018 78.5885 7.05003 78.5885C7.04989 78.5884 7.04974 78.5884 7.0496 78.5883C7.04945 78.5883 7.04931 78.5882 7.04917 78.5882C7.04902 78.5882 7.04888 78.5881 7.04874 78.5881C7.0486 78.588 7.04846 78.588 7.04832 78.5879C7.04818 78.5879 7.04804 78.5878 7.0479 78.5878C7.04777 78.5877 7.04763 78.5877 7.0475 78.5876C7.04736 78.5876 7.04723 78.5876 7.04709 78.5875C7.04696 78.5875 7.04683 78.5874 7.04669 78.5874C7.04656 78.5873 7.04643 78.5873 7.0463 78.5872C7.04617 78.5872 7.04604 78.5872 7.04591 78.5871C7.04579 78.5871 7.04566 78.587 7.04553 78.587C7.04541 78.5869 7.04528 78.5869 7.04516 78.5869C7.04503 78.5868 7.04491 78.5868 7.04478 78.5867C7.04466 78.5867 7.04454 78.5867 7.04442 78.5866C7.0443 78.5866 7.04418 78.5865 7.04406 78.5865C7.04394 78.5865 7.04382 78.5864 7.04371 78.5864C7.04359 78.5863 7.04347 78.5863 7.04336 78.5863C7.04324 78.5862 7.04313 78.5862 7.04301 78.5861C7.0429 78.5861 7.04279 78.5861 7.04268 78.586C7.04256 78.586 7.04245 78.586 7.04234 78.5859C7.04223 78.5859 7.04212 78.5858 7.04202 78.5858C7.04191 78.5858 7.0418 78.5857 7.04169 78.5857C7.04159 78.5857 7.04148 78.5856 7.04138 78.5856C7.04127 78.5856 7.04117 78.5855 7.04107 78.5855C7.04097 78.5855 7.04086 78.5854 7.04076 78.5854C7.04066 78.5854 7.04056 78.5853 7.04046 78.5853C7.04037 78.5853 7.04027 78.5852 7.04017 78.5852C7.04007 78.5852 7.03998 78.5851 7.03988 78.5851C7.03979 78.5851 7.03969 78.585 7.0396 78.585C7.03951 78.585 7.03941 78.5849 7.03932 78.5849C7.03923 78.5849 7.03914 78.5849 7.03905 78.5848C7.03896 78.5848 7.03887 78.5848 7.03878 78.5847C7.0387 78.5847 7.03861 78.5847 7.03852 78.5847C7.03844 78.5846 7.03835 78.5846 7.03827 78.5846C7.03818 78.5845 7.0381 78.5845 7.03802 78.5845C7.03794 78.5845 7.03785 78.5844 7.03777 78.5844C7.03769 78.5844 7.03761 78.5843 7.03753 78.5843C7.03745 78.5843 7.03738 78.5843 7.0373 78.5842C7.03722 78.5842 7.03715 78.5842 7.03707 78.5842C7.037 78.5841 7.03692 78.5841 7.03685 78.5841C7.03678 78.5841 7.0367 78.584 7.03663 78.584C7.03656 78.584 7.03649 78.584 7.03642 78.5839C7.03635 78.5839 7.03628 78.5839 7.03622 78.5839C7.03615 78.5839 7.03608 78.5838 7.03601 78.5838C7.03595 78.5838 7.03588 78.5838 7.03582 78.5838C7.03576 78.5837 7.03569 78.5837 7.03563 78.5837C7.03557 78.5837 7.03551 78.5836 7.03545 78.5836C7.03539 78.5836 7.03533 78.5836 7.03527 78.5836C7.03521 78.5835 7.03515 78.5835 7.0351 78.5835C7.03504 78.5835 7.03498 78.5835 7.03493 78.5835C7.03487 78.5834 7.03482 78.5834 7.03477 78.5834C7.03471 78.5834 7.03466 78.5834 7.03461 78.5833C7.03456 78.5833 7.03451 78.5833 7.03446 78.5833C7.03441 78.5833 7.03436 78.5833 7.03431 78.5832C7.03426 78.5832 7.03422 78.5832 7.03417 78.5832C7.03413 78.5832 7.03408 78.5832 7.03404 78.5832C7.03399 78.5831 7.03395 78.5831 7.03391 78.5831C7.03387 78.5831 7.03383 78.5831 7.03378 78.5831C7.03374 78.5831 7.03371 78.583 7.03367 78.583C7.03363 78.583 7.03359 78.583 7.03355 78.583C7.03352 78.583 7.03348 78.583 7.03345 78.583C7.03341 78.5829 7.03338 78.5829 7.03335 78.5829C7.03331 78.5829 7.03328 78.5829 7.03325 78.5829C7.03322 78.5829 7.03319 78.5829 7.03316 78.5829C7.03313 78.5829 7.0331 78.5828 7.03307 78.5828C7.03305 78.5828 7.03302 78.5828 7.03299 78.5828C7.03297 78.5828 7.03294 78.5828 7.03292 78.5828C7.0329 78.5828 7.03287 78.5828 7.03285 78.5828C7.03283 78.5828 7.03281 78.5827 7.03279 78.5827C7.03277 78.5827 7.03275 78.5827 7.03273 78.5827C7.03271 78.5827 7.03269 78.5827 7.03268 78.5827C7.03266 78.5827 7.03265 78.5827 7.03263 78.5827C7.03262 78.5827 7.0326 78.5827 7.03259 78.5827C7.03258 78.5827 7.03257 78.5827 7.03255 78.5827C7.03254 78.5827 7.03253 78.5827 7.03252 78.5827C7.03251 78.5826 7.03251 78.5826 7.0325 78.5826C7.03249 78.5826 7.03249 78.5826 7.03248 78.5826C7.03247 78.5826 7.03247 78.5826 7.03247 78.5826C7.03246 78.5826 7.03246 78.5826 7.03246 78.5826C7.03246 78.5826 7.03246 78.5826 6.4 80.48C5.76754 82.3774 5.76755 82.3774 5.76755 82.3774C5.76755 82.3774 5.76755 82.3774 5.76756 82.3774C5.76756 82.3774 5.76756 82.3774 5.76757 82.3774C5.76757 82.3774 5.76758 82.3774 5.76759 82.3774C5.7676 82.3774 5.7676 82.3774 5.76761 82.3774C5.76762 82.3774 5.76763 82.3774 5.76764 82.3774C5.76765 82.3774 5.76767 82.3774 5.76768 82.3774C5.76769 82.3774 5.76771 82.3774 5.76772 82.3774C5.76773 82.3774 5.76775 82.3774 5.76777 82.3774C5.76778 82.3774 5.7678 82.3774 5.76782 82.3775C5.76784 82.3775 5.76786 82.3775 5.76788 82.3775C5.7679 82.3775 5.76792 82.3775 5.76794 82.3775C5.76796 82.3775 5.76798 82.3775 5.76801 82.3775C5.76803 82.3775 5.76806 82.3775 5.76808 82.3775C5.76811 82.3776 5.76814 82.3776 5.76816 82.3776C5.76819 82.3776 5.76822 82.3776 5.76825 82.3776C5.76828 82.3776 5.76831 82.3776 5.76834 82.3776C5.76837 82.3776 5.7684 82.3777 5.76843 82.3777C5.76847 82.3777 5.7685 82.3777 5.76854 82.3777C5.76857 82.3777 5.76861 82.3777 5.76864 82.3777C5.76868 82.3777 5.76872 82.3777 5.76876 82.3778C5.76879 82.3778 5.76883 82.3778 5.76887 82.3778C5.76891 82.3778 5.76896 82.3778 5.769 82.3778C5.76904 82.3779 5.76908 82.3779 5.76913 82.3779C5.76917 82.3779 5.76922 82.3779 5.76926 82.3779C5.76931 82.3779 5.76935 82.378 5.7694 82.378C5.76945 82.378 5.7695 82.378 5.76955 82.378C5.7696 82.378 5.76965 82.3781 5.7697 82.3781C5.76975 82.3781 5.7698 82.3781 5.76985 82.3781C5.76991 82.3781 5.76996 82.3782 5.77002 82.3782C5.77007 82.3782 5.77013 82.3782 5.77018 82.3782C5.77024 82.3783 5.7703 82.3783 5.77036 82.3783C5.77042 82.3783 5.77047 82.3783 5.77054 82.3784C5.7706 82.3784 5.77066 82.3784 5.77072 82.3784C5.77078 82.3784 5.77084 82.3785 5.77091 82.3785C5.77097 82.3785 5.77104 82.3785 5.7711 82.3786C5.77117 82.3786 5.77124 82.3786 5.7713 82.3786C5.77137 82.3786 5.77144 82.3787 5.77151 82.3787C5.77158 82.3787 5.77165 82.3787 5.77172 82.3788C5.77179 82.3788 5.77187 82.3788 5.77194 82.3788C5.77201 82.3788 5.77209 82.3789 5.77216 82.3789C5.77224 82.3789 5.77231 82.3789 5.77239 82.379C5.77247 82.379 5.77254 82.379 5.77262 82.3791C5.7727 82.3791 5.77278 82.3791 5.77286 82.3791C5.77294 82.3792 5.77302 82.3792 5.77311 82.3792C5.77319 82.3792 5.77327 82.3793 5.77336 82.3793C5.77344 82.3793 5.77353 82.3794 5.77361 82.3794C5.7737 82.3794 5.77378 82.3794 5.77387 82.3795C5.77396 82.3795 5.77405 82.3795 5.77414 82.3796C5.77423 82.3796 5.77432 82.3796 5.77441 82.3796C5.7745 82.3797 5.77459 82.3797 5.77469 82.3797C5.77478 82.3798 5.77488 82.3798 5.77497 82.3798C5.77507 82.3799 5.77516 82.3799 5.77526 82.3799C5.77536 82.38 5.77545 82.38 5.77555 82.38C5.77565 82.3801 5.77575 82.3801 5.77585 82.3801C5.77595 82.3802 5.77606 82.3802 5.77616 82.3802C5.77626 82.3803 5.77636 82.3803 5.77647 82.3803C5.77657 82.3804 5.77668 82.3804 5.77678 82.3804C5.77689 82.3805 5.777 82.3805 5.77711 82.3805C5.77721 82.3806 5.77732 82.3806 5.77743 82.3807C5.77754 82.3807 5.77765 82.3807 5.77776 82.3808C5.77788 82.3808 5.77799 82.3808 5.7781 82.3809C5.77822 82.3809 5.77833 82.381 5.77845 82.381C5.77856 82.381 5.77868 82.3811 5.77879 82.3811C5.77891 82.3812 5.77903 82.3812 5.77915 82.3812C5.77927 82.3813 5.77939 82.3813 5.77951 82.3814C5.77963 82.3814 5.77975 82.3814 5.77987 82.3815C5.78 82.3815 5.78012 82.3816 5.78024 82.3816C5.78037 82.3816 5.78049 82.3817 5.78062 82.3817C5.78075 82.3818 5.78087 82.3818 5.781 82.3818C5.78113 82.3819 5.78126 82.3819 5.78139 82.382C5.78152 82.382 5.78165 82.3821 5.78178 82.3821C5.78191 82.3822 5.78205 82.3822 5.78218 82.3822C5.78231 82.3823 5.78245 82.3823 5.78258 82.3824C5.78272 82.3824 5.78286 82.3825 5.78299 82.3825C5.78313 82.3826 5.78327 82.3826 5.78341 82.3826C5.78355 82.3827 5.78369 82.3827 5.78383 82.3828C5.78397 82.3828 5.78411 82.3829 5.78425 82.3829C5.7844 82.383 5.78454 82.383 5.78469 82.3831C5.78483 82.3831 5.78498 82.3832 5.78512 82.3832C5.78527 82.3833 5.78542 82.3833 5.78556 82.3834C5.78571 82.3834 5.78586 82.3835 5.78601 82.3835C5.78616 82.3836 5.78631 82.3836 5.78647 82.3837C5.78662 82.3837 5.78677 82.3838 5.78692 82.3838C5.78708 82.3839 5.78723 82.3839 5.78739 82.384C5.78754 82.384 5.7877 82.3841 5.78786 82.3841C5.78802 82.3842 5.78817 82.3842 5.78833 82.3843C5.78849 82.3843 5.78865 82.3844 5.78881 82.3844C5.78898 82.3845 5.78914 82.3846 5.7893 82.3846C5.78946 82.3847 5.78963 82.3847 5.78979 82.3848C5.78996 82.3848 5.79012 82.3849 5.79029 82.3849C5.79046 82.385 5.79062 82.3851 5.79079 82.3851C5.79096 82.3852 5.79113 82.3852 5.7913 82.3853C5.79147 82.3853 5.79164 82.3854 5.79181 82.3854C5.79199 82.3855 5.79216 82.3856 5.79233 82.3856C5.79251 82.3857 5.79268 82.3857 5.79286 82.3858C5.79303 82.3859 5.79321 82.3859 5.79339 82.386C5.79356 82.386 5.79374 82.3861 5.79392 82.3862C5.7941 82.3862 5.79428 82.3863 5.79446 82.3863C5.79464 82.3864 5.79483 82.3865 5.79501 82.3865C5.79519 82.3866 5.79538 82.3866 5.79556 82.3867C5.79575 82.3868 5.79593 82.3868 5.79612 82.3869C5.79631 82.387 5.79649 82.387 5.79668 82.3871C5.79687 82.3871 5.79706 82.3872 5.79725 82.3873C5.79744 82.3873 5.79763 82.3874 5.79783 82.3875C5.79802 82.3875 5.79821 82.3876 5.79841 82.3876C5.7986 82.3877 5.79879 82.3878 5.79899 82.3878C5.79919 82.3879 5.79938 82.388 5.79958 82.388C5.79978 82.3881 5.79998 82.3882 5.80018 82.3882C5.80038 82.3883 5.80058 82.3884 5.80078 82.3884C5.80098 82.3885 5.80118 82.3886 5.80139 82.3886C5.80159 82.3887 5.80179 82.3888 5.802 82.3888C5.8022 82.3889 5.80241 82.389 5.80262 82.389C5.80282 82.3891 5.80303 82.3892 5.80324 82.3893C5.80345 82.3893 5.80366 82.3894 5.80387 82.3895C5.80408 82.3895 5.80429 82.3896 5.8045 82.3897C5.80472 82.3898 5.80493 82.3898 5.80514 82.3899C5.80536 82.39 5.80557 82.39 5.80579 82.3901C5.806 82.3902 5.80622 82.3903 5.80644 82.3903C5.80666 82.3904 5.80688 82.3905 5.8071 82.3905C5.80731 82.3906 5.80754 82.3907 5.80776 82.3908C5.80798 82.3908 5.8082 82.3909 5.80842 82.391C5.80865 82.3911 5.80887 82.3911 5.8091 82.3912C5.80932 82.3913 5.80955 82.3914 5.80978 82.3914C5.81 82.3915 5.81023 82.3916 5.81046 82.3917C5.81069 82.3917 5.81092 82.3918 5.81115 82.3919C5.81138 82.392 5.81161 82.392 5.81184 82.3921C5.81208 82.3922 5.81231 82.3923 5.81254 82.3924C5.81278 82.3924 5.81301 82.3925 5.81325 82.3926C5.81349 82.3927 5.81372 82.3928 5.81396 82.3928C5.8142 82.3929 5.81444 82.393 5.81468 82.3931C5.81492 82.3932 5.81516 82.3932 5.8154 82.3933C5.81564 82.3934 5.81589 82.3935 5.81613 82.3936C5.81637 82.3936 5.81662 82.3937 5.81686 82.3938C5.81711 82.3939 5.81735 82.394 5.8176 82.394C5.81785 82.3941 5.8181 82.3942 5.81835 82.3943C5.81859 82.3944 5.81884 82.3945 5.8191 82.3945C5.81935 82.3946 5.8196 82.3947 5.81985 82.3948C5.8201 82.3949 5.82036 82.395 5.82061 82.3951C5.82087 82.3951 5.82112 82.3952 5.82138 82.3953C5.82163 82.3954 5.82189 82.3955 5.82215 82.3956C5.82241 82.3956 5.82267 82.3957 5.82293 82.3958C5.82319 82.3959 5.82345 82.396 5.82371 82.3961C5.82397 82.3962 5.82423 82.3963 5.8245 82.3963C5.82476 82.3964 5.82503 82.3965 5.82529 82.3966C5.82556 82.3967 5.82582 82.3968 5.82609 82.3969C5.82636 82.397 5.82663 82.3971 5.8269 82.3971C5.82716 82.3972 5.82743 82.3973 5.82771 82.3974C5.82798 82.3975 5.82825 82.3976 5.82852 82.3977C5.82879 82.3978 5.82907 82.3979 5.82934 82.398C5.82962 82.3981 5.82989 82.3981 5.83017 82.3982C5.83045 82.3983 5.83072 82.3984 5.831 82.3985C5.83128 82.3986 5.83156 82.3987 5.83184 82.3988C5.83212 82.3989 5.8324 82.399 5.83268 82.3991C5.83296 82.3992 5.83325 82.3993 5.83353 82.3994C5.83382 82.3995 5.8341 82.3995 5.83439 82.3996C5.83467 82.3997 5.83496 82.3998 5.83525 82.3999C5.83553 82.4 5.83582 82.4001 5.83611 82.4002C5.8364 82.4003 5.83669 82.4004 5.83698 82.4005C5.83727 82.4006 5.83756 82.4007 5.83786 82.4008C5.83815 82.4009 5.83844 82.401 5.83874 82.4011C5.83903 82.4012 5.83933 82.4013 5.83963 82.4014C5.83992 82.4015 5.84022 82.4016 5.84052 82.4017C5.84082 82.4018 5.84112 82.4019 5.84142 82.402C5.84172 82.4021 5.84202 82.4022 5.84232 82.4023C5.84262 82.4024 5.84293 82.4025 5.84323 82.4026C5.84353 82.4027 5.84384 82.4028 5.84414 82.4029C5.84445 82.403 5.84476 82.4031 5.84506 82.4032C5.84537 82.4033 5.84568 82.4034 5.84599 82.4035C5.8463 82.4036 5.84661 82.4037 5.84692 82.4038C5.84723 82.4039 5.84754 82.404 5.84786 82.4041C5.84817 82.4042 5.84848 82.4043 5.8488 82.4044C5.84911 82.4046 5.84943 82.4047 5.84975 82.4048C5.85006 82.4049 5.85038 82.405 5.8507 82.4051C5.85102 82.4052 5.85134 82.4053 5.85166 82.4054C5.85198 82.4055 5.8523 82.4056 5.85262 82.4057C5.85294 82.4058 5.85327 82.4059 5.85359 82.406C5.85392 82.4062 5.85424 82.4063 5.85457 82.4064C5.85489 82.4065 5.85522 82.4066 5.85555 82.4067C5.85588 82.4068 5.8562 82.4069 5.85653 82.407C5.85686 82.4071 5.85719 82.4072 5.85753 82.4074C5.85786 82.4075 5.85819 82.4076 5.85852 82.4077C5.85886 82.4078 5.85919 82.4079 5.85952 82.408C5.85986 82.4081 5.8602 82.4082 5.86053 82.4084C5.86087 82.4085 5.86121 82.4086 5.86155 82.4087C5.86189 82.4088 5.86222 82.4089 5.86257 82.409C5.86291 82.4092 5.86325 82.4093 5.86359 82.4094C5.86393 82.4095 5.86428 82.4096 5.86462 82.4097C5.86496 82.4098 5.86531 82.41 5.86566 82.4101C5.866 82.4102 5.86635 82.4103 5.8667 82.4104C5.86704 82.4105 5.86739 82.4106 5.86774 82.4108C5.86809 82.4109 5.86844 82.411 5.86879 82.4111C5.86915 82.4112 5.8695 82.4113 5.86985 82.4115C5.87021 82.4116 5.87056 82.4117 5.87091 82.4118C5.87127 82.4119 5.87163 82.4121 5.87198 82.4122C5.87234 82.4123 5.8727 82.4124 5.87306 82.4125C5.87342 82.4127 5.87378 82.4128 5.87414 82.4129C5.8745 82.413 5.87486 82.4131 5.87522 82.4133C5.87558 82.4134 5.87595 82.4135 5.87631 82.4136C5.87668 82.4137 5.87704 82.4139 5.87741 82.414C5.87777 82.4141 5.87814 82.4142 5.87851 82.4143C5.87888 82.4145 5.87925 82.4146 5.87962 82.4147C5.87999 82.4148 5.88036 82.415 5.88073 82.4151C5.8811 82.4152 5.88147 82.4153 5.88185 82.4155C5.88222 82.4156 5.88259 82.4157 5.88297 82.4158C5.88335 82.416 5.88372 82.4161 5.8841 82.4162C5.88448 82.4163 5.88485 82.4165 5.88523 82.4166C5.88561 82.4167 5.88599 82.4168 5.88637 82.417C5.88675 82.4171 5.88714 82.4172 5.88752 82.4174C5.8879 82.4175 5.88828 82.4176 5.88867 82.4177C5.88905 82.4179 5.88944 82.418 5.88983 82.4181C5.89021 82.4183 5.8906 82.4184 5.89099 82.4185C5.89138 82.4186 5.89176 82.4188 5.89215 82.4189C5.89254 82.419 5.89294 82.4192 5.89333 82.4193C5.89372 82.4194 5.89411 82.4196 5.89451 82.4197C5.8949 82.4198 5.89529 82.4199 5.89569 82.4201C5.89608 82.4202 5.89648 82.4203 5.89688 82.4205C5.89728 82.4206 5.89767 82.4207 5.89807 82.4209C5.89847 82.421 5.89887 82.4211 5.89927 82.4213C5.89967 82.4214 5.90008 82.4215 5.90048 82.4217C5.90088 82.4218 5.90129 82.4219 5.90169 82.4221C5.90209 82.4222 5.9025 82.4223 5.90291 82.4225C5.90331 82.4226 5.90372 82.4228 5.90413 82.4229C5.90454 82.423 5.90495 82.4232 5.90536 82.4233C5.90577 82.4234 5.90618 82.4236 5.90659 82.4237C5.907 82.4238 5.90742 82.424 5.90783 82.4241C5.90824 82.4243 5.90866 82.4244 5.90907 82.4245C5.90949 82.4247 5.90991 82.4248 5.91032 82.425C5.91074 82.4251 5.91116 82.4252 5.91158 82.4254C5.912 82.4255 5.91242 82.4257 5.91284 82.4258C5.91326 82.4259 5.91368 82.4261 5.9141 82.4262C5.91453 82.4264 5.91495 82.4265 5.91538 82.4266C5.9158 82.4268 5.91623 82.4269 5.91665 82.4271C5.91708 82.4272 5.91751 82.4273 5.91794 82.4275C5.91836 82.4276 5.91879 82.4278 5.91922 82.4279C5.91965 82.4281 5.92009 82.4282 5.92052 82.4284C5.92095 82.4285 5.92138 82.4286 5.92182 82.4288C5.92225 82.4289 5.92269 82.4291 5.92312 82.4292C5.92356 82.4294 5.92399 82.4295 5.92443 82.4297C5.92487 82.4298 5.92531 82.4299 5.92575 82.4301C5.92619 82.4302 5.92663 82.4304 5.92707 82.4305C5.92751 82.4307 5.92795 82.4308 5.9284 82.431C5.92884 82.4311 5.92928 82.4313 5.92973 82.4314C5.93017 82.4316 5.93062 82.4317 5.93107 82.4319C5.93151 82.432 5.93196 82.4322 5.93241 82.4323C5.93286 82.4325 5.93331 82.4326 5.93376 82.4328C5.93421 82.4329 5.93466 82.4331 5.93511 82.4332C5.93556 82.4334 5.93602 82.4335 5.93647 82.4337C5.93692 82.4338 5.93738 82.434 5.93784 82.4341C5.93829 82.4343 5.93875 82.4344 5.93921 82.4346C5.93966 82.4347 5.94012 82.4349 5.94058 82.435C5.94104 82.4352 5.9415 82.4353 5.94196 82.4355C5.94242 82.4357 5.94289 82.4358 5.94335 82.436C5.94381 82.4361 5.94428 82.4363 5.94474 82.4364C5.94521 82.4366 5.94567 82.4367 5.94614 82.4369C5.94661 82.4371 5.94708 82.4372 5.94754 82.4374C5.94801 82.4375 5.94848 82.4377 5.94895 82.4378C5.94942 82.438 5.9499 82.4381 5.95037 82.4383C5.95084 82.4385 5.95131 82.4386 5.95179 82.4388C5.95226 82.4389 5.95274 82.4391 5.95321 82.4393C5.95369 82.4394 5.95417 82.4396 5.95464 82.4397C5.95512 82.4399 5.9556 82.44 5.95608 82.4402C5.95656 82.4404 5.95704 82.4405 5.95752 82.4407C5.958 82.4408 5.95849 82.441 5.95897 82.4412C5.95945 82.4413 5.95994 82.4415 5.96042 82.4417C5.96091 82.4418 5.96139 82.442 5.96188 82.4421C5.96237 82.4423 5.96286 82.4425 5.96335 82.4426C5.96383 82.4428 5.96432 82.443 5.96482 82.4431C5.96531 82.4433 5.9658 82.4434 5.96629 82.4436C5.96678 82.4438 5.96728 82.4439 5.96777 82.4441C5.96826 82.4443 5.96876 82.4444 5.96926 82.4446C5.96975 82.4448 5.97025 82.4449 5.97075 82.4451C5.97125 82.4453 5.97174 82.4454 5.97224 82.4456C5.97274 82.4458 5.97325 82.4459 5.97375 82.4461C5.97425 82.4463 5.97475 82.4464 5.97525 82.4466C5.97576 82.4468 5.97626 82.4469 5.97677 82.4471C5.97727 82.4473 5.97778 82.4474 5.97829 82.4476C5.97879 82.4478 5.9793 82.4479 5.97981 82.4481C5.98032 82.4483 5.98083 82.4485 5.98134 82.4486C5.98185 82.4488 5.98236 82.449 5.98288 82.4491C5.98339 82.4493 5.9839 82.4495 5.98442 82.4496C5.98493 82.4498 5.98545 82.45 5.98596 82.4502C5.98648 82.4503 5.987 82.4505 5.98752 82.4507C5.98803 82.4509 5.98855 82.451 5.98907 82.4512C5.98959 82.4514 5.99011 82.4515 5.99064 82.4517C5.99116 82.4519 5.99168 82.4521 5.9922 82.4523C5.99273 82.4524 5.99325 82.4526 5.99378 82.4528C5.9943 82.4529 5.99483 82.4531 5.99536 82.4533C5.99588 82.4535 5.99641 82.4537 5.99694 82.4538C5.99747 82.454 5.998 82.4542 5.99853 82.4544C5.99906 82.4545 5.9996 82.4547 6.00013 82.4549C6.00066 82.4551 6.00119 82.4552 6.00173 82.4554C6.00226 82.4556 6.0028 82.4558 6.00334 82.456C6.00387 82.4561 6.00441 82.4563 6.00495 82.4565C6.00549 82.4567 6.00603 82.4569 6.00657 82.457C6.00711 82.4572 6.00765 82.4574 6.00819 82.4576C6.00873 82.4578 6.00927 82.4579 6.00982 82.4581C6.01036 82.4583 6.01091 82.4585 6.01145 82.4587C6.012 82.4588 6.01254 82.459 6.01309 82.4592C6.01364 82.4594 6.01419 82.4596 6.01474 82.4598C6.01529 82.4599 6.01584 82.4601 6.01639 82.4603C6.01694 82.4605 6.01749 82.4607 6.01804 82.4609C6.0186 82.461 6.01915 82.4612 6.01971 82.4614C6.02026 82.4616 6.02082 82.4618 6.02137 82.462C6.02193 82.4622 6.02249 82.4623 6.02305 82.4625C6.0236 82.4627 6.02416 82.4629 6.02472 82.4631C6.02528 82.4633 6.02584 82.4635 6.02641 82.4636C6.02697 82.4638 6.02753 82.464 6.0281 82.4642C6.02866 82.4644 6.02923 82.4646 6.02979 82.4648C6.03036 82.465 6.03092 82.4652 6.03149 82.4653C6.03206 82.4655 6.03263 82.4657 6.0332 82.4659C6.03377 82.4661 6.03434 82.4663 6.03491 82.4665C6.03548 82.4667 6.03605 82.4669 6.03662 82.4671C6.0372 82.4672 6.03777 82.4674 6.03835 82.4676C6.03892 82.4678 6.0395 82.468 6.04007 82.4682C6.04065 82.4684 6.04123 82.4686 6.04181 82.4688C6.04239 82.469 6.04297 82.4692 6.04355 82.4694C6.04413 82.4696 6.04471 82.4698 6.04529 82.4699C6.04587 82.4701 6.04646 82.4703 6.04704 82.4705C6.04762 82.4707 6.04821 82.4709 6.04879 82.4711C6.04938 82.4713 6.04997 82.4715 6.05056 82.4717C6.05114 82.4719 6.05173 82.4721 6.05232 82.4723C6.05291 82.4725 6.0535 82.4727 6.05409 82.4729C6.05468 82.4731 6.05528 82.4733 6.05587 82.4735C6.05646 82.4737 6.05706 82.4739 6.05765 82.4741C6.05825 82.4743 6.05884 82.4745 6.05944 82.4747C6.06004 82.4749 6.06064 82.4751 6.06123 82.4753C6.06183 82.4755 6.06243 82.4757 6.06303 82.4759C6.06363 82.4761 6.06423 82.4763 6.06484 82.4765C6.06544 82.4767 6.06604 82.4769 6.06665 82.4771C6.06725 82.4773 6.06786 82.4775 6.06846 82.4777C6.06907 82.4779 6.06968 82.4781 6.07028 82.4783C6.07089 82.4785 6.0715 82.4787 6.07211 82.4789C6.07272 82.4791 6.07333 82.4793 6.07394 82.4795C6.07455 82.4797 6.07517 82.4799 6.07578 82.4801C6.07639 82.4803 6.07701 82.4805 6.07762 82.4807C6.07824 82.4809 6.07885 82.4811 6.07947 82.4813C6.08009 82.4815 6.08071 82.4817 6.08132 82.482C6.08194 82.4822 6.08256 82.4824 6.08318 82.4826C6.08381 82.4828 6.08443 82.483 6.08505 82.4832C6.08567 82.4834 6.0863 82.4836 6.08692 82.4838C6.08754 82.484 6.08817 82.4842 6.0888 82.4844C6.08942 82.4847 6.09005 82.4849 6.09068 82.4851C6.09131 82.4853 6.09193 82.4855 6.09256 82.4857C6.09319 82.4859 6.09382 82.4861 6.09446 82.4863C6.09509 82.4865 6.09572 82.4868 6.09635 82.487C6.09699 82.4872 6.09762 82.4874 6.09826 82.4876C6.09889 82.4878 6.09953 82.488 6.10017 82.4882C6.1008 82.4884 6.10144 82.4887 6.10208 82.4889C6.10272 82.4891 6.10336 82.4893 6.104 82.4895C6.10464 82.4897 6.10528 82.4899 6.10593 82.4902C6.10657 82.4904 6.10721 82.4906 6.10786 82.4908C6.1085 82.491 6.10915 82.4912 6.10979 82.4914C6.11044 82.4917 6.11109 82.4919 6.11174 82.4921C6.11238 82.4923 6.11303 82.4925 6.11368 82.4927C6.11433 82.493 6.11498 82.4932 6.11564 82.4934C6.11629 82.4936 6.11694 82.4938 6.11759 82.494C6.11825 82.4943 6.1189 82.4945 6.11956 82.4947C6.12021 82.4949 6.12087 82.4951 6.12153 82.4954C6.12218 82.4956 6.12284 82.4958 6.1235 82.496C6.12416 82.4962 6.12482 82.4965 6.12548 82.4967C6.12614 82.4969 6.1268 82.4971 6.12747 82.4973C6.12813 82.4976 6.12879 82.4978 6.12946 82.498C6.13012 82.4982 6.13079 82.4984 6.13146 82.4987C6.13212 82.4989 6.13279 82.4991 6.13346 82.4993C6.13413 82.4996 6.1348 82.4998 6.13547 82.5C6.13614 82.5002 6.13681 82.5004 6.13748 82.5007C6.13815 82.5009 6.13882 82.5011 6.1395 82.5013C6.14017 82.5016 6.14085 82.5018 6.14152 82.502C6.1422 82.5022 6.14287 82.5025 6.14355 82.5027C6.14423 82.5029 6.14491 82.5031 6.14559 82.5034C6.14627 82.5036 6.14695 82.5038 6.14763 82.5041C6.14831 82.5043 6.14899 82.5045 6.14967 82.5047C6.15036 82.505 6.15104 82.5052 6.15173 82.5054C6.15241 82.5056 6.1531 82.5059 6.15378 82.5061C6.15447 82.5063 6.15516 82.5066 6.15585 82.5068C6.15653 82.507 6.15722 82.5073 6.15791 82.5075C6.1586 82.5077 6.1593 82.5079 6.15999 82.5082C6.16068 82.5084 6.16137 82.5086 6.16207 82.5089C6.16276 82.5091 6.16345 82.5093 6.16415 82.5096C6.16485 82.5098 6.16554 82.51 6.16624 82.5103C6.16694 82.5105 6.16764 82.5107 6.16834 82.511C6.16904 82.5112 6.16974 82.5114 6.17044 82.5117C6.17114 82.5119 6.17184 82.5121 6.17254 82.5124C6.17325 82.5126 6.17395 82.5128 6.17466 82.5131C6.17536 82.5133 6.17607 82.5135 6.17677 82.5138C6.17748 82.514 6.17819 82.5142 6.1789 82.5145C6.17961 82.5147 6.18032 82.5149 6.18103 82.5152C6.18174 82.5154 6.18245 82.5157 6.18316 82.5159C6.18387 82.5161 6.18459 82.5164 6.1853 82.5166C6.18601 82.5168 6.18673 82.5171 6.18744 82.5173C6.18816 82.5176 6.18888 82.5178 6.1896 82.518C6.19031 82.5183 6.19103 82.5185 6.19175 82.5188C6.19247 82.519 6.19319 82.5192 6.19391 82.5195C6.19463 82.5197 6.19536 82.52 6.19608 82.5202C6.1968 82.5204 6.19753 82.5207 6.19825 82.5209C6.19898 82.5212 6.1997 82.5214 6.20043 82.5217C6.20116 82.5219 6.20189 82.5221 6.20261 82.5224C6.20334 82.5226 6.20407 82.5229 6.2048 82.5231C6.20553 82.5234 6.20627 82.5236 6.207 82.5238C6.20773 82.5241 6.20846 82.5243 6.2092 82.5246C6.20993 82.5248 6.21067 82.5251 6.2114 82.5253C6.21214 82.5256 6.21288 82.5258 6.21361 82.526C6.21435 82.5263 6.21509 82.5265 6.21583 82.5268C6.21657 82.527 6.21731 82.5273 6.21805 82.5275C6.21879 82.5278 6.21954 82.528 6.22028 82.5283C6.22102 82.5285 6.22177 82.5288 6.22251 82.529C6.22326 82.5293 6.224 82.5295 6.22475 82.5298C6.2255 82.53 6.22625 82.5303 6.227 82.5305C6.22774 82.5308 6.22849 82.531 6.22925 82.5313C6.23 82.5315 6.23075 82.5318 6.2315 82.532C6.23225 82.5323 6.23301 82.5325 6.23376 82.5328C6.23451 82.533 6.23527 82.5333 6.23603 82.5335C6.23678 82.5338 6.23754 82.534 6.2383 82.5343C6.23906 82.5345 6.23981 82.5348 6.24057 82.535C6.24133 82.5353 6.2421 82.5355 6.24286 82.5358C6.24362 82.5361 6.24438 82.5363 6.24514 82.5366C6.24591 82.5368 6.24667 82.5371 6.24744 82.5373C6.2482 82.5376 6.24897 82.5378 6.24974 82.5381C6.2505 82.5383 6.25127 82.5386 6.25204 82.5389C6.25281 82.5391 6.25358 82.5394 6.25435 82.5396C6.25512 82.5399 6.25589 82.5401 6.25667 82.5404C6.25744 82.5407 6.25821 82.5409 6.25899 82.5412C6.25976 82.5414 6.26054 82.5417 6.26131 82.5419C6.26209 82.5422 6.26287 82.5425 6.26365 82.5427C6.26442 82.543 6.2652 82.5432 6.26598 82.5435C6.26676 82.5438 6.26754 82.544 6.26833 82.5443C6.26911 82.5446 6.26989 82.5448 6.27067 82.5451C6.27146 82.5453 6.27224 82.5456 6.27303 82.5459C6.27381 82.5461 6.2746 82.5464 6.27539 82.5466C6.27617 82.5469 6.27696 82.5472 6.27775 82.5474C6.27854 82.5477 6.27933 82.548 6.28012 82.5482C6.28091 82.5485 6.28171 82.5487 6.2825 82.549C6.28329 82.5493 6.28409 82.5495 6.28488 82.5498C6.28567 82.5501 6.28647 82.5503 6.28727 82.5506C6.28806 82.5509 6.28886 82.5511 6.28966 82.5514C6.29046 82.5517 6.29126 82.5519 6.29206 82.5522C6.29286 82.5525 6.29366 82.5527 6.29446 82.553C6.29526 82.5533 6.29606 82.5535 6.29687 82.5538C6.29767 82.5541 6.29848 82.5543 6.29928 82.5546C6.30009 82.5549 6.3009 82.5551 6.3017 82.5554C6.30251 82.5557 6.30332 82.5559 6.30413 82.5562C6.30494 82.5565 6.30575 82.5568 6.30656 82.557C6.30737 82.5573 6.30818 82.5576 6.30899 82.5578C6.30981 82.5581 6.31062 82.5584 6.31144 82.5587C6.31225 82.5589 6.31307 82.5592 6.31388 82.5595C6.3147 82.5597 6.31552 82.56 6.31634 82.5603C6.31715 82.5606 6.31797 82.5608 6.31879 82.5611C6.31961 82.5614 6.32044 82.5617 6.32126 82.5619C6.32208 82.5622 6.3229 82.5625 6.32373 82.5628C6.32455 82.563 6.32538 82.5633 6.3262 82.5636C6.32703 82.5639 6.32785 82.5641 6.32868 82.5644C6.32951 82.5647 6.33034 82.565 6.33117 82.5652C6.332 82.5655 6.33283 82.5658 6.33366 82.5661C6.33449 82.5663 6.33532 82.5666 6.33616 82.5669C6.33699 82.5672 6.33782 82.5675 6.33866 82.5677C6.33949 82.568 6.34033 82.5683 6.34117 82.5686C6.342 82.5689 6.34284 82.5691 6.34368 82.5694C6.34452 82.5697 6.34536 82.57 6.3462 82.5702C6.34704 82.5705 6.34788 82.5708 6.34872 82.5711C6.34956 82.5714 6.35041 82.5717 6.35125 82.5719C6.3521 82.5722 6.35294 82.5725 6.35379 82.5728C6.35463 82.5731 6.35548 82.5733 6.35633 82.5736C6.35717 82.5739 6.35802 82.5742 6.35887 82.5745C6.35972 82.5748 6.36057 82.575 6.36142 82.5753C6.36228 82.5756 6.36313 82.5759 6.36398 82.5762C6.36483 82.5765 6.36569 82.5767 6.36654 82.577C6.3674 82.5773 6.36826 82.5776 6.36911 82.5779C6.36997 82.5782 6.37083 82.5785 6.37169 82.5787C6.37254 82.579 6.3734 82.5793 6.37426 82.5796C6.37513 82.5799 6.37599 82.5802 6.37685 82.5805C6.37771 82.5808 6.37857 82.581 6.37944 82.5813C6.3803 82.5816 6.38117 82.5819 6.38203 82.5822C6.3829 82.5825 6.38377 82.5828 6.38464 82.5831C6.3855 82.5833 6.38637 82.5836 6.38724 82.5839C6.38811 82.5842 6.38898 82.5845 6.38985 82.5848C6.39073 82.5851 6.3916 82.5854 6.39247 82.5857C6.39334 82.586 6.39422 82.5863 6.39509 82.5865C6.39597 82.5868 6.39685 82.5871 6.39772 82.5874C6.3986 82.5877 6.39948 82.588 6.40036 82.5883C6.40124 82.5886 6.40212 82.5889 6.403 82.5892C6.40388 82.5895 6.40476 82.5898 6.40564 82.5901C6.40652 82.5904 6.40741 82.5906 6.40829 82.5909C6.40918 82.5912 6.41006 82.5915 6.41095 82.5918C6.41183 82.5921 6.41272 82.5924 6.41361 82.5927C6.4145 82.593 6.41539 82.5933 6.41628 82.5936C6.41717 82.5939 6.41806 82.5942 6.41895 82.5945C6.41984 82.5948 6.42073 82.5951 6.42163 82.5954C6.42252 82.5957 6.42341 82.596 6.42431 82.5963C6.42521 82.5966 6.4261 82.5969 6.427 82.5972C6.4279 82.5975 6.42879 82.5978 6.42969 82.5981C6.43059 82.5984 6.43149 82.5987 6.43239 82.599C6.43329 82.5993 6.4342 82.5996 6.4351 82.5999C6.436 82.6002 6.4369 82.6005 6.43781 82.6008C6.43871 82.6011 6.43962 82.6014 6.44053 82.6017C6.44143 82.602 6.44234 82.6023 6.44325 82.6026C6.44416 82.6029 6.44506 82.6032 6.44598 82.6035C6.44689 82.6038 6.4478 82.6041 6.44871 82.6044C6.44962 82.6047 6.45053 82.605 6.45145 82.6053C6.45236 82.6056 6.45327 82.6059 6.45419 82.6062C6.45511 82.6065 6.45602 82.6069 6.45694 82.6072C6.45786 82.6075 6.45877 82.6078 6.45969 82.6081C6.46061 82.6084 6.46153 82.6087 6.46245 82.609C6.46338 82.6093 6.4643 82.6096 6.46522 82.6099C6.46614 82.6102 6.46707 82.6105 6.46799 82.6108C6.46892 82.6112 6.46984 82.6115 6.47077 82.6118C6.47169 82.6121 6.47262 82.6124 6.47355 82.6127C6.47448 82.613 6.47541 82.6133 6.47634 82.6136C6.47727 82.6139 6.4782 82.6142 6.47913 82.6146C6.48006 82.6149 6.481 82.6152 6.48193 82.6155C6.48286 82.6158 6.4838 82.6161 6.48473 82.6164C6.48567 82.6167 6.48661 82.617 6.48754 82.6174L7.12 80.72ZM6.4 80.48H4.4C4.4 81.7974 4.64311 83.0558 5.25169 84.1513C5.87501 85.2733 6.81353 86.0993 7.97927 86.6238L8.8 84.8L9.62073 82.9762C9.18647 82.7807 8.92499 82.5267 8.74831 82.2087C8.55689 81.8641 8.4 81.3226 8.4 80.48H6.4ZM8.8 84.8L7.97927 86.6238C9.87106 87.4751 11.9566 87.88 14.2 87.88V85.88V83.88C12.4434 83.88 10.9289 83.5648 9.62073 82.9762L8.8 84.8ZM14.2 85.88V87.88C17.7081 87.88 21.2308 86.8883 24.7456 85.0023L23.8 83.24L22.8544 81.4777C19.8092 83.1117 16.9319 83.88 14.2 83.88V85.88ZM23.8 83.24L24.728 85.0117C28.229 83.1778 31.7815 80.7774 35.3865 77.8279L34.12 76.28L32.8535 74.7321C29.4185 77.5426 26.091 79.7822 22.872 81.4683L23.8 83.24ZM34.12 76.28L35.4072 77.8107C38.9698 74.8149 42.6069 71.5007 46.3186 67.8697L44.92 66.44L43.5214 65.0103C39.8731 68.5793 36.3102 71.8251 32.8328 74.7493L34.12 76.28ZM44.92 66.44L46.3189 67.8693C50.0688 64.1992 53.8988 60.5289 57.8089 56.8581L56.44 55.4L55.0711 53.9418C51.1412 57.6311 47.2912 61.3207 43.5211 65.0107L44.92 66.44ZM56.44 55.4L57.8124 56.8548C62.0522 52.855 66.2519 48.8953 70.4116 44.9756L69.04 43.52L67.6684 42.0644C63.5081 45.9847 59.3078 49.945 55.0676 53.9452L56.44 55.4ZM69.04 43.52L70.4124 44.9748C74.6228 41.0028 78.6668 37.435 82.5447 34.2693L81.28 32.72L80.0152 31.1707C76.0532 34.405 71.9372 38.0372 67.6676 42.0652L69.04 43.52ZM81.28 32.72L82.5447 34.2693C86.4037 31.1192 89.9521 28.628 93.1923 26.7765L92.2 25.04L91.2077 23.3035C87.7279 25.292 83.9963 27.9208 80.0152 31.1707L81.28 32.72ZM92.2 25.04L93.1923 26.7765C96.3814 24.9541 99.0333 24.16 101.2 24.16V22.16V20.16C98.0867 20.16 94.7385 21.2859 91.2077 23.3035L92.2 25.04ZM101.2 22.16V24.16C101.366 24.16 101.463 24.1679 101.507 24.1736C101.568 24.1815 101.477 24.1784 101.318 24.1076C101.175 24.0444 100.709 23.8045 100.456 23.1992C100.183 22.5426 100.373 21.981 100.491 21.7456L102.28 22.64L104.069 23.5344C104.267 23.139 104.472 22.4374 104.149 21.6608C103.846 20.9355 103.265 20.5956 102.942 20.4524C102.344 20.1864 101.658 20.16 101.2 20.16V22.16ZM102.28 22.64L100.34 22.1549C100.463 21.6616 100.757 21.3873 100.887 21.2863C101.015 21.187 101.093 21.1666 101.038 21.1873C100.995 21.2035 100.898 21.2341 100.73 21.2706C100.566 21.3064 100.356 21.3428 100.096 21.3775L100.36 23.36L100.624 25.3425C101.278 25.2553 101.913 25.1313 102.442 24.9327C102.707 24.8334 103.035 24.683 103.343 24.4437C103.653 24.2027 104.057 23.7784 104.22 23.1251L102.28 22.64ZM100.36 23.36L100.022 21.3888C96.8904 21.9256 93.5664 23.3333 90.0673 25.4995L91.12 27.2L92.1727 28.9005C95.3936 26.9067 98.2296 25.7544 100.698 25.3312L100.36 23.36ZM91.12 27.2L90.0788 25.4924C86.6815 27.5639 83.1109 30.2358 79.3676 33.4908L80.68 35L81.9924 36.5092C85.6091 33.3642 88.9985 30.8361 92.1612 28.9076L91.12 27.2ZM80.68 35L79.3866 33.4745C75.6718 36.624 71.8415 40.0918 67.8955 43.8766L69.28 45.32L70.6644 46.7634C74.5585 43.0282 78.3281 39.616 81.9734 36.5255L80.68 35ZM69.28 45.32L67.8962 43.876C64.061 47.5514 60.1456 51.267 56.1502 55.0227L57.52 56.48L58.8898 57.9373C62.8944 54.173 66.819 50.4486 70.6638 46.764L69.28 45.32ZM57.52 56.48L56.1376 55.0347C52.4573 58.5549 48.7371 62.1152 44.9769 65.7154L46.36 67.16L47.7431 68.6046C51.5029 65.0048 55.2227 61.445 58.9024 57.9253L57.52 56.48ZM46.36 67.16L44.9614 65.7303C41.3183 69.2942 37.6799 72.5764 34.0462 75.5781L35.32 77.12L36.5938 78.6619C40.3201 75.5836 44.0417 72.2258 47.7586 68.5897L46.36 67.16ZM35.32 77.12L34.0296 75.5919C30.5276 78.5492 27.0537 80.8989 23.6098 82.6591L24.52 84.44L25.4302 86.2209C29.1863 84.3011 32.9124 81.7708 36.6104 78.6481L35.32 77.12ZM24.52 84.44L23.5935 82.6675C20.315 84.3813 17.1507 85.2 14.08 85.2V87.2V89.2C17.8893 89.2 21.685 88.1787 25.4465 86.2124L24.52 84.44ZM51.04 81.8L50.4075 79.9026C50.0811 80.0115 49.655 80.1076 49.1119 80.1754L49.36 82.16L49.6081 84.1445C50.345 84.0524 51.0389 83.9085 51.6725 83.6974L51.04 81.8ZM49.36 82.16V80.16C49.3204 80.16 49.4025 80.1544 49.5503 80.1955C49.6875 80.2336 50.0637 80.3631 50.3817 80.7606C50.7443 81.2138 50.8054 81.7274 50.7575 82.0868C50.7172 82.3884 50.6071 82.5687 50.595 82.589L48.88 81.56L47.165 80.531C46.9942 80.8157 46.3115 82.0759 47.2583 83.2594C47.6563 83.7569 48.1625 83.9614 48.4797 84.0495C48.8075 84.1406 49.1196 84.16 49.36 84.16V82.16ZM48.88 81.56L50.595 82.589C50.8078 82.2344 51.2236 81.5902 51.8641 80.6294L50.2 79.52L48.5359 78.4106C47.8964 79.3698 47.4322 80.0856 47.165 80.531L48.88 81.56ZM50.2 79.52L51.8444 80.6584C52.6706 79.465 53.3792 78.08 53.984 76.5249L52.12 75.8L50.256 75.0751C49.7407 76.4 49.1694 77.495 48.5556 78.3816L50.2 79.52ZM52.12 75.8L53.9476 76.6123C54.697 74.9262 55.08 73.1702 55.08 71.36H53.08H51.08C51.08 72.5898 50.823 73.7938 50.2924 74.9877L52.12 75.8ZM53.08 71.36H55.08C55.08 69.1281 54.6796 66.6606 53.9253 63.9785L52 64.52L50.0747 65.0615C50.7604 67.4994 51.08 69.5919 51.08 71.36H53.08ZM52 64.52L53.9437 64.0488C53.2512 61.1924 52.0864 58.44 50.4652 55.7949L48.76 56.84L47.0548 57.8851C48.4736 60.2 49.4688 62.5676 50.0563 64.9912L52 64.52ZM48.76 56.84L50.4896 55.8357C48.8862 53.0743 46.7018 50.8055 43.9643 49.0394L42.88 50.72L41.7957 52.4006C44.0182 53.8345 45.7538 55.6456 47.0304 57.8443L48.76 56.84ZM42.88 50.72L44.0269 49.0815C41.2277 47.1221 37.846 46.2 34 46.2V48.2V50.2C37.194 50.2 39.7323 50.9579 41.7331 52.3585L42.88 50.72ZM34 48.2V46.2C31.3457 46.2 28.9461 46.8456 26.8906 48.2159L28 49.88L29.1094 51.5441C30.4139 50.6744 32.0143 50.2 34 50.2V48.2ZM28 49.88L26.8531 48.2415C25.0201 49.5246 23.5653 51.1095 22.5276 52.9962L24.28 53.96L26.0324 54.9238C26.7547 53.6105 27.7799 52.4754 29.1469 51.5185L28 49.88ZM24.28 53.96L22.5102 53.0285C21.588 54.7806 21.08 56.5784 21.08 58.4H23.08H25.08C25.08 57.3416 25.372 56.1794 26.0498 54.8915L24.28 53.96ZM23.08 58.4H21.08C21.08 61.9395 22.1308 65.2774 24.1686 68.3784L25.84 67.28L27.5114 66.1816C25.8692 63.6826 25.08 61.1005 25.08 58.4H23.08ZM25.84 67.28L24.1905 68.4111C26.3599 71.5747 29.5573 74.0638 33.6467 75.9381L34.48 74.12L35.3133 72.3019C31.7227 70.6562 29.1601 68.5853 27.4895 66.1489L25.84 67.28ZM34.48 74.12L33.6784 75.9523C37.8439 77.7747 42.8965 78.64 48.76 78.64V76.64V74.64C43.2635 74.64 38.7961 73.8253 35.2816 72.2877L34.48 74.12ZM48.76 76.64V78.64C55.2329 78.64 61.1109 77.5189 66.3585 75.2337L65.56 73.4L64.7615 71.5663C60.0891 73.6011 54.7671 74.64 48.76 74.64V76.64ZM65.56 73.4L66.3585 75.2337C71.526 72.9833 75.909 70.0441 79.4708 66.3975L78.04 65L76.6093 63.6025C73.451 66.8359 69.514 69.4967 64.7615 71.5663L65.56 73.4ZM78.04 65L79.4708 66.3975C82.9905 62.7939 85.526 58.9575 87.0008 54.8803L85.12 54.2L83.2392 53.5197C81.994 56.9625 79.8095 60.3261 76.6092 63.6025L78.04 65ZM85.12 54.2L87.0174 54.8324C87.1045 54.5711 87.1756 54.389 87.2288 54.2707C87.2913 54.1319 87.2953 54.1575 87.2217 54.2494C87.2177 54.2545 86.7751 54.85 85.885 54.85C84.8767 54.85 84.4182 54.1177 84.365 54.029L86.08 53L87.795 51.971C87.6218 51.6823 87.0333 50.85 85.885 50.85C84.8549 50.85 84.2623 51.5455 84.0983 51.7506C83.6904 52.2605 83.4191 52.9782 83.2226 53.5675L85.12 54.2ZM86.08 53L84.6658 54.4142C84.7122 54.4606 84.6889 54.4499 84.6511 54.3744C84.6089 54.2898 84.56 54.1455 84.56 53.96H86.56H88.56C88.56 52.9225 88.0322 52.1238 87.4942 51.5858L86.08 53ZM86.56 53.96H84.56C84.56 56.2077 83.8042 58.5919 82.1286 61.1416L83.8 62.24L85.4714 63.3384C87.4758 60.2881 88.56 57.1523 88.56 53.96H86.56ZM83.8 62.24L82.1286 61.1416C80.4516 63.6936 78.0418 66.1237 74.8375 68.4125L76 70.04L77.1625 71.6675C80.6782 69.1562 83.4684 66.3864 85.4714 63.3384L83.8 62.24ZM76 70.04L74.8636 68.3942C71.6814 70.5914 67.9791 72.3912 63.7379 73.7792L64.36 75.68L64.9821 77.5808C69.5409 76.0888 73.5986 74.1286 77.1364 71.6858L76 70.04ZM64.36 75.68L63.7379 73.7792C59.5618 75.1459 54.9744 75.84 49.96 75.84V77.84V79.84C55.3456 79.84 60.3582 79.0941 64.9821 77.5808L64.36 75.68ZM49.96 77.84V75.84C44.7905 75.84 40.0465 75.1073 35.7125 73.6626L35.08 75.56L34.4475 77.4574C39.2335 79.0527 44.4095 79.84 49.96 79.84V77.84ZM35.08 75.56L35.7226 73.666C31.5011 72.2338 28.1556 70.1535 25.6129 67.4656L24.16 68.84L22.7071 70.2144C25.7644 73.4465 29.6989 75.8462 34.4374 77.454L35.08 75.56ZM24.16 68.84L25.6327 67.4867C23.2646 64.9098 22.08 61.838 22.08 58.16H20.08H18.08C18.08 62.802 19.6154 66.8502 22.6873 70.1932L24.16 68.84ZM20.08 58.16H22.08C22.08 55.9812 22.9598 53.9086 24.9742 51.8942L23.56 50.48L22.1458 49.0658C19.5202 51.6914 18.08 54.7388 18.08 58.16H20.08ZM23.56 50.48L24.9742 51.8942C26.8845 49.9839 29.7827 48.88 34 48.88V46.88V44.88C29.0973 44.88 25.0355 46.1761 22.1458 49.0658L23.56 50.48ZM34 46.88V48.88C37.5318 48.88 40.3118 49.6864 42.4669 51.1681L43.6 49.52L44.7331 47.8719C41.7682 45.8336 38.1482 44.88 34 44.88V46.88ZM43.6 49.52L42.4906 51.1841C44.9067 52.7948 46.8221 54.7529 48.264 57.06L49.96 56L51.656 54.94C49.8979 52.127 47.5733 49.7651 44.7094 47.8559L43.6 49.52ZM49.96 56L48.264 57.06C49.7767 59.4803 50.8525 61.8671 51.5147 64.2215L53.44 63.68L55.3653 63.1385C54.5875 60.3729 53.3433 57.6397 51.656 54.94L49.96 56ZM53.44 63.68L51.5147 64.2215C52.2104 66.695 52.52 68.6174 52.52 70.04H54.52H56.52C56.52 68.1026 56.1096 65.785 55.3653 63.1385L53.44 63.68ZM54.52 70.04H52.52C52.52 71.704 52.3032 73.3744 51.8648 75.0551L53.8 75.56L55.7352 76.0648C56.2568 74.0655 56.52 72.056 56.52 70.04H54.52ZM53.8 75.56L51.8705 75.0338C51.4101 76.7219 50.9254 78.0875 50.4276 79.1542L52.24 80L54.0524 80.8458C54.6746 79.5125 55.2299 77.9181 55.7295 76.0862L53.8 75.56ZM52.24 80L50.4017 79.2122C50.1818 79.7252 50.0177 80.028 49.9159 80.1806C49.8653 80.2565 49.8648 80.2422 49.9218 80.1885C49.9531 80.1589 50.0162 80.1037 50.1128 80.044C50.2097 79.9841 50.3581 79.9089 50.5549 79.8597L51.04 81.8L51.5251 83.7403C52.0639 83.6056 52.4442 83.3081 52.6682 83.0965C52.9052 82.8728 53.0947 82.6234 53.2441 82.3994C53.5423 81.952 53.8182 81.3948 54.0783 80.7878L52.24 80ZM43.96 86.96L45.3742 88.3742C45.4986 88.2499 45.8093 87.877 46.1564 87.4604C46.5592 86.977 47.1414 86.2744 47.9019 85.3538L46.36 84.08L44.8181 82.8062C44.0586 83.7256 43.4808 84.423 43.0836 84.8996C42.8846 85.1384 42.7334 85.3189 42.6282 85.4431C42.4845 85.613 42.4905 85.601 42.5458 85.5458L43.96 86.96ZM46.36 84.08L47.9019 85.3538C49.4257 83.5092 51.4286 81.0657 53.9097 78.0242L52.36 76.76L50.8103 75.4957C48.3314 78.5343 46.3343 80.9707 44.8181 82.8062L46.36 84.08ZM52.36 76.76L53.9097 78.0242C56.3855 74.9895 59.1819 71.5938 62.2991 67.8371L60.76 66.56L59.2209 65.2828C56.0981 69.0461 53.2945 72.4505 50.8103 75.4957L52.36 76.76ZM60.76 66.56L62.3122 67.8212C65.425 63.9901 68.658 60.0785 72.0114 56.0864L70.48 54.8L68.9486 53.5136C65.582 57.5215 62.335 61.4499 59.2078 65.2988L60.76 66.56ZM70.48 54.8L72.0114 56.0864C75.3688 52.0895 78.646 48.2128 81.8431 44.4562L80.32 43.16L78.7969 41.8638C75.594 45.6272 72.3112 49.5105 68.9486 53.5136L70.48 54.8ZM80.32 43.16L81.8407 44.459C85.113 40.628 88.1028 37.1999 90.8105 34.1736L89.32 32.84L87.8295 31.5064C85.0972 34.5601 82.087 38.012 78.7993 41.861L80.32 43.16ZM89.32 32.84L90.8085 34.1758C93.597 31.0686 95.8902 28.6182 97.6942 26.8142L96.28 25.4L94.8658 23.9858C92.9898 25.8618 90.643 28.3714 87.8315 31.5042L89.32 32.84ZM96.28 25.4L97.6638 26.844C98.6027 25.9442 99.3349 25.2991 99.8743 24.8814C100.145 24.6718 100.334 24.5453 100.453 24.4767C100.611 24.3857 100.526 24.4651 100.283 24.4999L100 22.52L99.7171 20.5401C99.1936 20.6149 98.7444 20.8443 98.4519 21.0133C98.1206 21.2047 97.7749 21.4482 97.4257 21.7186C96.7251 22.2609 95.8773 23.0158 94.8962 23.956L96.28 25.4ZM100 22.52L100.743 24.3769C100.752 24.3733 100.689 24.4 100.57 24.4C100.442 24.4 100.305 24.3686 100.186 24.3089L101.08 22.52L101.974 20.7311C101.04 20.2638 100.07 20.3381 99.2572 20.663L100 22.52ZM101.08 22.52L100.186 24.3088C100.05 24.2412 99.7221 24.0471 99.4892 23.6202C99.227 23.1395 99.2379 22.6472 99.3369 22.3006C99.4209 22.0066 99.5575 21.8398 99.5811 21.8111C99.6158 21.769 99.62 21.7732 99.5596 21.8236L100.84 23.36L102.12 24.8964C102.386 24.6748 102.963 24.1704 103.183 23.3994C103.322 22.9128 103.323 22.2955 103.001 21.7048C102.708 21.1679 102.27 20.8788 101.974 20.7311L101.08 22.52ZM100.84 23.36L99.64 21.76C99.3946 21.9441 99.1509 22.2013 98.9804 22.3859C98.7735 22.6101 98.5233 22.8962 98.235 23.236C97.6565 23.9178 96.8826 24.8651 95.9183 26.0706L97.48 27.32L99.0417 28.5694C99.9974 27.3748 100.743 26.4622 101.285 25.824C101.557 25.5038 101.766 25.2649 101.92 25.0991C102.109 24.8937 102.125 24.8959 102.04 24.96L100.84 23.36ZM97.48 27.32L95.9392 26.0449C93.9984 28.39 91.5427 31.4902 88.576 35.339L90.16 36.56L91.744 37.781C94.6973 33.9498 97.1216 30.89 99.0208 28.5951L97.48 27.32ZM90.16 36.56L88.5722 35.3438C85.6887 39.1084 82.5257 43.2724 79.0834 47.8355L80.68 49.04L82.2766 50.2445C85.7143 45.6876 88.8713 41.5316 91.7478 37.7761L90.16 36.56ZM80.68 49.04L79.08 47.84C75.72 52.32 72.36 56.8 69 61.28L70.6 62.48L72.2 63.68C75.56 59.2 78.92 54.72 82.28 50.24L80.68 49.04ZM70.6 62.48L69.0105 61.2662C65.6464 65.6715 62.5615 69.758 59.7559 73.5255L61.36 74.72L62.9641 75.9145C65.7585 72.162 68.8336 68.0885 72.1895 63.6938L70.6 62.48ZM61.36 74.72L59.7516 73.5312C57.0373 77.2036 54.8102 80.1461 53.0674 82.3644L54.64 83.6L56.2126 84.8356C57.9898 82.5738 60.2427 79.5964 62.9684 75.9088L61.36 74.72ZM54.64 83.6L53.04 82.4C52.2022 83.5171 51.5731 84.3426 51.1474 84.8843C50.932 85.1585 50.7831 85.3415 50.6915 85.4484C50.6417 85.5065 50.6335 85.513 50.6533 85.4933C50.6585 85.4881 50.7117 85.4341 50.7965 85.3682C50.837 85.3367 50.9299 85.2667 51.0616 85.1958C51.1412 85.1529 51.4965 84.96 52 84.96V86.96V88.96C52.5085 88.96 52.8703 88.7649 52.958 88.7177C53.098 88.6423 53.2005 88.5658 53.2523 88.5256C53.3595 88.4421 53.4415 88.3619 53.4817 88.3217C53.5715 88.232 53.6583 88.1335 53.7285 88.0516C53.8769 87.8784 54.068 87.6415 54.2926 87.3556C54.7469 86.7774 55.3978 85.9229 56.24 84.8L54.64 83.6ZM52 86.96L52.4851 85.0197C52.0086 84.9006 51.3176 84.8098 50.519 84.7299L50.32 86.72L50.121 88.7101C50.9224 88.7902 51.3514 88.8594 51.5149 88.9003L52 86.96ZM50.32 86.72L50.5409 84.7322C49.748 84.6441 48.9542 84.6 48.16 84.6V86.6V88.6C48.8058 88.6 49.452 88.6359 50.0991 88.7078L50.32 86.72ZM48.16 86.6V84.6C47.3697 84.6 46.472 84.6437 45.4739 84.7269L45.64 86.72L45.8061 88.7131C46.728 88.6363 47.5103 88.6 48.16 88.6V86.6ZM45.64 86.72L45.2822 84.7523C44.8546 84.83 44.5221 84.8851 44.2772 84.9201C43.9995 84.9598 43.9241 84.96 43.96 84.96V86.96V88.96C44.419 88.96 45.176 88.8371 45.9978 88.6877L45.64 86.72Z" fill="#40FF1E" mask="url(#path-1-outside-1_300_41)"/>
</svg>
